<svg width="568" height="568" viewBox="0 0 568 568" fill="none" xmlns="http://www.w3.org/2000/svg">
<path d="M568 434.406H0V434.69H568V434.406Z" fill="#EBEBEB"/>
<path d="M511.086 452.685H486.458V452.969H511.086V452.685Z" fill="#EBEBEB"/>
<path d="M391.545 446.8H352.796V447.084H391.545V446.8Z" fill="#EBEBEB"/>
<path d="M501.112 442.143H450.526V442.427H501.112V442.143Z" fill="#EBEBEB"/>
<path d="M196.551 447.868H183.896V448.152H196.551V447.868Z" fill="#EBEBEB"/>
<path d="M173.774 447.868H130.163V448.152H173.774V447.868Z" fill="#EBEBEB"/>
<path d="M106.795 443.074H75.3281V443.358H106.795V443.074Z" fill="#EBEBEB"/>
<path d="M269.232 383.741H49.8818C48.1634 383.738 46.5164 383.053 45.3024 381.837C44.0884 380.621 43.4066 378.973 43.4066 377.254V68.9098C43.4215 67.2012 44.11 65.5676 45.3224 64.3637C46.5348 63.1598 48.1732 62.4829 49.8818 62.48H269.232C270.952 62.48 272.602 63.1634 273.819 64.3799C275.035 65.5963 275.719 67.2462 275.719 68.9666V377.254C275.719 378.975 275.035 380.624 273.819 381.841C272.602 383.057 270.952 383.741 269.232 383.741ZM49.8818 62.7072C48.2387 62.7102 46.664 63.365 45.5032 64.5279C44.3425 65.6908 43.6906 67.2667 43.6906 68.9098V377.254C43.6906 378.897 44.3425 380.473 45.5032 381.636C46.664 382.799 48.2387 383.454 49.8818 383.457H269.232C270.876 383.454 272.452 382.799 273.615 381.637C274.777 380.474 275.432 378.898 275.435 377.254V68.9098C275.432 67.2657 274.777 65.6898 273.615 64.5272C272.452 63.3646 270.876 62.7102 269.232 62.7072H49.8818Z" fill="#EBEBEB"/>
<path d="M514.96 383.741H295.599C293.879 383.738 292.231 383.053 291.015 381.838C289.799 380.622 289.115 378.974 289.112 377.254V68.9098C289.13 67.2002 289.821 65.5666 291.035 64.363C292.249 63.1594 293.889 62.4829 295.599 62.48H514.96C516.667 62.4859 518.302 63.1642 519.512 64.3677C520.722 65.5713 521.409 67.2032 521.424 68.9098V377.254C521.424 378.971 520.744 380.617 519.532 381.833C518.321 383.049 516.677 383.735 514.96 383.741ZM295.599 62.7072C293.954 62.7102 292.379 63.3646 291.216 64.5272C290.053 65.6898 289.399 67.2657 289.396 68.9098V377.254C289.399 378.898 290.053 380.474 291.216 381.637C292.379 382.799 293.954 383.454 295.599 383.457H514.96C516.604 383.454 518.18 382.799 519.343 381.637C520.505 380.474 521.16 378.898 521.163 377.254V68.9098C521.16 67.2657 520.505 65.6898 519.343 64.5272C518.18 63.3646 516.604 62.7102 514.96 62.7072H295.599Z" fill="#EBEBEB"/>
<path d="M130.64 198.38C136.94 198.38 142.982 195.877 147.436 191.422C151.891 186.968 154.394 180.926 154.394 174.626C154.394 168.326 151.891 162.284 147.436 157.829C142.982 153.375 136.94 150.872 130.64 150.872H127.72V198.38H130.64Z" fill="#E0E0E0"/>
<path d="M127.698 198.38C140.817 198.38 151.451 187.745 151.451 174.626C151.451 161.507 140.817 150.872 127.698 150.872C114.579 150.872 103.944 161.507 103.944 174.626C103.944 187.745 114.579 198.38 127.698 198.38Z" fill="#F5F5F5"/>
<path d="M126.607 177.602C118.171 177.602 110.081 174.251 104.116 168.286C98.1504 162.321 94.7992 154.23 94.7992 145.794V126.812C94.7992 126.019 95.114 125.259 95.6743 124.699C96.2346 124.139 96.9945 123.824 97.7869 123.824C98.5793 123.824 99.3392 124.139 99.8995 124.699C100.46 125.259 100.775 126.019 100.775 126.812V145.806C100.781 152.653 103.503 159.218 108.343 164.061C113.184 168.904 119.748 171.629 126.596 171.638C127.003 171.613 127.411 171.672 127.794 171.81C128.178 171.949 128.529 172.164 128.826 172.444C129.124 172.723 129.36 173.06 129.522 173.434C129.684 173.809 129.768 174.212 129.768 174.62C129.768 175.028 129.684 175.432 129.522 175.806C129.36 176.18 129.124 176.518 128.826 176.797C128.529 177.076 128.178 177.292 127.794 177.43C127.411 177.569 127.003 177.627 126.596 177.602H126.607Z" fill="#E0E0E0"/>
<path d="M71.3749 143.534H124.222C125.067 143.534 125.901 143.34 126.659 142.967C127.417 142.594 128.08 142.052 128.596 141.382C129.112 140.713 129.467 139.934 129.634 139.105C129.802 138.277 129.776 137.421 129.561 136.604L124.96 119.28C124.649 118.103 123.959 117.062 122.995 116.318C122.032 115.574 120.849 115.17 119.632 115.168H75.9643C74.7457 115.169 73.5617 115.573 72.5963 116.317C71.6308 117.061 70.9379 118.102 70.6251 119.28L66.0811 136.581C65.8599 137.396 65.8291 138.251 65.9911 139.08C66.153 139.909 66.5033 140.69 67.015 141.362C67.5266 142.034 68.1859 142.579 68.9419 142.956C69.6979 143.332 70.5303 143.53 71.3749 143.534Z" fill="#F5F5F5"/>
<path d="M466.078 198.38C472.378 198.38 478.42 195.877 482.875 191.422C487.329 186.968 489.832 180.926 489.832 174.626C489.832 168.326 487.329 162.284 482.875 157.829C478.42 153.375 472.378 150.872 466.078 150.872H463.159V198.38H466.078Z" fill="#E0E0E0"/>
<path d="M463.159 198.38C476.277 198.38 486.912 187.745 486.912 174.626C486.912 161.507 476.277 150.872 463.159 150.872C450.04 150.872 439.405 161.507 439.405 174.626C439.405 187.745 450.04 198.38 463.159 198.38Z" fill="#F5F5F5"/>
<path d="M462.068 177.602C453.632 177.602 445.542 174.251 439.576 168.286C433.611 162.321 430.26 154.23 430.26 145.794V126.812C430.26 126.019 430.575 125.259 431.135 124.699C431.695 124.139 432.455 123.824 433.248 123.824C434.04 123.824 434.8 124.139 435.36 124.699C435.921 125.259 436.235 126.019 436.235 126.812V145.806C436.241 152.653 438.963 159.218 443.804 164.061C448.645 168.904 455.209 171.629 462.057 171.638C462.464 171.613 462.872 171.672 463.255 171.81C463.639 171.949 463.99 172.164 464.287 172.444C464.584 172.723 464.821 173.06 464.983 173.434C465.145 173.809 465.228 174.212 465.228 174.62C465.228 175.028 465.145 175.432 464.983 175.806C464.821 176.18 464.584 176.518 464.287 176.797C463.99 177.076 463.639 177.292 463.255 177.43C462.872 177.569 462.464 177.627 462.057 177.602H462.068Z" fill="#E0E0E0"/>
<path d="M406.836 143.534H459.682C460.527 143.534 461.361 143.34 462.12 142.967C462.878 142.594 463.541 142.052 464.057 141.382C464.573 140.713 464.928 139.934 465.095 139.105C465.262 138.277 465.237 137.421 465.022 136.604L460.478 119.303C460.167 118.126 459.476 117.085 458.513 116.341C457.549 115.597 456.367 115.193 455.15 115.19H411.425C410.206 115.192 409.022 115.596 408.057 116.34C407.092 117.083 406.399 118.125 406.086 119.303L401.542 136.604C401.325 137.418 401.297 138.27 401.461 139.096C401.625 139.922 401.976 140.7 402.487 141.369C402.998 142.038 403.656 142.581 404.41 142.956C405.164 143.332 405.994 143.529 406.836 143.534Z" fill="#F5F5F5"/>
<path d="M152.201 358.817H169.48V291.872H152.201V358.817Z" fill="#E6E6E6"/>
<path d="M105.364 358.806H162.698L171.354 280.456H114.02L105.364 358.806Z" fill="#F0F0F0"/>
<path d="M99.1501 358.806H158.381L167.037 280.456H107.818L99.1501 358.806Z" fill="#F5F5F5"/>
<path d="M154.098 352.637L161.392 286.636H112.089L104.796 352.637H154.098Z" fill="white"/>
<path d="M143.92 336.631L144.272 333.984C146.101 317.421 135.763 302.664 122.336 302.664L122.029 305.357C120.2 321.908 130.538 336.665 143.977 336.665L143.92 336.631Z" fill="#F5F5F5"/>
<path d="M67.1262 434.406H118.064L118.064 358.806H67.1262V434.406Z" fill="#E6E6E6"/>
<path d="M72.2382 434.406H67.1149V419.832H77.6115L72.2382 434.406Z" fill="#F0F0F0"/>
<path d="M209.887 434.406H260.826V358.806H209.887V434.406Z" fill="#E6E6E6"/>
<path d="M67.1149 425.466H214.352V358.817H67.1149V425.466Z" fill="#F0F0F0"/>
<path d="M209.228 434.406H214.352V419.832H203.855L209.228 434.406Z" fill="#F0F0F0"/>
<path d="M71.0909 389.875H210.376V362.975H71.0909V389.875Z" fill="#E6E6E6"/>
<path d="M131.447 380.56H150.02C154.014 380.562 157.965 379.748 161.634 378.17C165.302 376.592 168.61 374.282 171.354 371.381H110.112C112.858 374.28 116.166 376.589 119.834 378.167C123.502 379.746 127.453 380.56 131.447 380.56Z" fill="#F0F0F0"/>
<path d="M71.0909 421.115H210.376V394.215H71.0909V421.115Z" fill="#E6E6E6"/>
<path d="M131.447 411.755H150.02C154.014 411.756 157.965 410.943 161.634 409.365C165.302 407.786 168.61 405.476 171.354 402.576H110.112C112.858 405.475 116.166 407.784 119.834 409.362C123.502 410.94 127.453 411.754 131.447 411.755Z" fill="#F0F0F0"/>
<path d="M205.025 355.727H206.343C206.343 353.012 206.343 346.139 206.479 330.383C206.718 301.812 207.172 300.074 207.172 300.074L204.037 313.263C202.049 327.861 204.616 342.538 205.025 355.727Z" fill="#E6E6E6"/>
<path d="M202.424 311.264C197.88 305.891 188.281 304.323 178.42 302.983C174.546 302.46 188.587 311.309 195.46 317.592C200.799 322.476 204.207 323.828 205.684 328.69C206.434 322.624 206.309 315.933 202.424 311.264Z" fill="#E6E6E6"/>
<path d="M208.411 320.897C212.955 315.524 222.554 313.968 232.414 312.627C236.288 312.105 222.19 320.954 215.374 327.236C210.035 332.121 206.627 333.473 205.15 338.335C204.4 332.269 204.48 325.532 208.411 320.897Z" fill="#E6E6E6"/>
<path d="M206.479 298.768C209.887 292.338 218.362 286.272 227.916 284C231.664 283.103 219.225 295.86 214.5 304.096C210.83 310.48 205.968 318 205.207 323.408C204.071 312.752 203.094 305.232 206.479 298.768Z" fill="#E6E6E6"/>
<path d="M206.07 358.806C202.049 358.806 198.721 356.795 198.482 354.205L197.812 349.797H214.34L213.659 354.205C213.432 356.795 210.16 358.806 206.07 358.806Z" fill="#F0F0F0"/>
<path d="M215.408 351.49H196.744L196.21 346.571H215.942L215.408 351.49Z" fill="#F0F0F0"/>
<path d="M192.597 257.554H374.596V91.5502L192.597 91.5502L192.597 257.554Z" fill="#E6E6E6"/>
<path d="M188.508 257.554H372.812V91.5502L188.508 91.5502L188.508 257.554Z" fill="#F5F5F5"/>
<path d="M365.451 250.124V98.991L195.846 98.991V250.124H365.451Z" fill="#FAFAFA"/>
<path d="M344.651 250.124L277.9 98.991H255.225L321.976 250.124H344.651Z" fill="white"/>
<path d="M315.547 250.124L248.795 98.991H233.187L299.938 250.124H315.547Z" fill="white"/>
<path d="M258.826 250.113V98.9797H250.056V250.113H258.826Z" fill="#E6E6E6"/>
<path d="M317.126 250.113V98.9797H308.356V250.113H317.126Z" fill="#E6E6E6"/>
<path d="M257.247 254.839V93.4587H246.16V254.839H257.247Z" fill="#F5F5F5"/>
<path d="M315.547 254.839V93.4587H304.459V254.839H315.547Z" fill="#F5F5F5"/>
<path d="M196.642 250.124V98.991H195.858V250.124H196.642Z" fill="#E6E6E6"/>
<path d="M185.418 81.9851H382.582C382.834 81.9881 383.075 82.0895 383.254 82.2679C383.432 82.4462 383.533 82.6872 383.536 82.9394C383.533 83.1905 383.431 83.4303 383.253 83.6068C383.074 83.7833 382.833 83.8822 382.582 83.8822H185.418C185.167 83.8822 184.926 83.7833 184.747 83.6068C184.569 83.4303 184.467 83.1905 184.464 82.9394C184.467 82.6872 184.568 82.4462 184.746 82.2679C184.925 82.0895 185.166 81.9881 185.418 81.9851Z" fill="#E6E6E6"/>
<path d="M374.596 88.2445C374.934 88.2415 375.258 88.1049 375.496 87.8645C375.735 87.6241 375.868 87.2993 375.868 86.9608V84.2117C375.87 84.0436 375.838 83.877 375.775 83.7213C375.711 83.5656 375.618 83.424 375.5 83.3047C375.381 83.1853 375.241 83.0906 375.085 83.0259C374.93 82.9613 374.764 82.928 374.596 82.928C374.257 82.928 373.933 83.0617 373.692 83.2999C373.452 83.5382 373.315 83.8618 373.312 84.2003V86.9494C373.312 87.2909 373.447 87.6186 373.688 87.8612C373.928 88.1037 374.254 88.2415 374.596 88.2445Z" fill="#E6E6E6"/>
<path d="M199.709 88.2445C200.048 88.2415 200.373 88.1053 200.613 87.8652C200.853 87.6251 200.989 87.3003 200.992 86.9608V84.2117C200.992 83.8712 200.857 83.5447 200.616 83.304C200.376 83.0632 200.049 82.928 199.709 82.928C199.371 82.928 199.048 83.062 198.809 83.3006C198.571 83.5393 198.436 83.8629 198.436 84.2003V86.9494C198.435 87.118 198.467 87.2852 198.53 87.4415C198.593 87.5979 198.686 87.7402 198.804 87.8605C198.923 87.9807 199.063 88.0765 199.218 88.1424C199.374 88.2083 199.54 88.243 199.709 88.2445Z" fill="#E6E6E6"/>
<path opacity="0.6" d="M185.713 212.932L369.893 212.932V82.928L185.713 82.928L185.713 212.932Z" fill="#E0E0E0"/>
<path d="M386.569 295.326H354.807C351.431 295.326 348.695 298.062 348.695 301.438V316.137C348.695 319.513 351.431 322.249 354.807 322.249H386.569C389.945 322.249 392.681 319.513 392.681 316.137V301.438C392.681 298.062 389.945 295.326 386.569 295.326Z" fill="#FAFAFA"/>
<path d="M390.625 290.35H350.751C349.616 290.35 348.695 291.271 348.695 292.406V294.065C348.695 295.201 349.616 296.121 350.751 296.121H390.625C391.761 296.121 392.681 295.201 392.681 294.065V292.406C392.681 291.271 391.761 290.35 390.625 290.35Z" fill="#E6E6E6"/>
<path d="M349.343 352.16C349.343 352.16 349.922 371.097 371.983 371.097C394.044 371.097 394.624 352.16 394.624 352.16H349.343Z" fill="#F0F0F0"/>
<path d="M399.645 352.16C399.645 352.16 400.224 371.097 422.285 371.097C444.346 371.097 444.926 352.16 444.926 352.16H399.645Z" fill="#F0F0F0"/>
<path d="M433.997 283.137H390.375C385.732 283.137 381.969 286.9 381.969 291.543V313.854C381.969 318.497 385.732 322.26 390.375 322.26H433.997C438.64 322.26 442.404 318.497 442.404 313.854V291.543C442.404 286.9 438.64 283.137 433.997 283.137Z" fill="#F0F0F0"/>
<path d="M439.587 276.298H384.786C383.23 276.298 381.969 277.559 381.969 279.115V281.41C381.969 282.966 383.23 284.227 384.786 284.227H439.587C441.142 284.227 442.404 282.966 442.404 281.41V279.115C442.404 277.559 441.142 276.298 439.587 276.298Z" fill="#F5F5F5"/>
<path d="M332.723 434.406H338.448V340.527H332.723V434.406Z" fill="#E6E6E6"/>
<path d="M498.045 322.249H467.044V340.516H498.045V322.249Z" fill="#E6E6E6"/>
<path d="M312.9 340.527H467.032V322.26H312.9V340.527Z" fill="#F5F5F5"/>
<path d="M498.045 371.04H467.044V389.307H498.045V371.04Z" fill="#E6E6E6"/>
<path d="M312.9 389.307H467.032V371.04H312.9V389.307Z" fill="#F5F5F5"/>
<path d="M486.855 434.406H492.581V340.527H486.855V434.406Z" fill="#E6E6E6"/>
<path d="M461.318 434.406H467.044V340.527H461.318V434.406Z" fill="#F5F5F5"/>
<path d="M312.9 434.406H318.625V340.527H312.9V434.406Z" fill="#F5F5F5"/>
<path d="M481.664 301.404C493.126 353.66 461.114 387.421 416.787 385.854C395.533 385.104 370.154 361.737 349.286 356.534C322.022 349.718 298.439 358.544 272.39 359.839C207.581 363.043 208.433 336.597 164.765 302.494C134.093 278.525 84.5979 281.149 68.2054 239.173C48.1209 187.86 105.693 163.061 149.429 170.673C199.686 179.397 213.602 116.826 290.362 123.756C365.792 130.572 465.521 222.656 481.664 301.404Z" fill="#407BFF"/>
<path opacity="0.9" d="M481.664 301.404C493.126 353.66 461.114 387.421 416.787 385.854C395.533 385.104 370.154 361.737 349.286 356.534C322.022 349.718 298.439 358.544 272.39 359.839C207.581 363.043 208.433 336.597 164.765 302.494C134.093 278.525 84.5979 281.149 68.2054 239.173C48.1209 187.86 105.693 163.061 149.429 170.673C199.686 179.397 213.602 116.826 290.362 123.756C365.792 130.572 465.521 222.656 481.664 301.404Z" fill="white"/>
<path d="M284 485.708C405.646 485.708 504.259 479.951 504.259 472.849C504.259 465.747 405.646 459.989 284 459.989C162.354 459.989 63.741 465.747 63.741 472.849C63.741 479.951 162.354 485.708 284 485.708Z" fill="#F5F5F5"/>
<path d="M295.826 415.208H150.906C148.576 415.175 146.344 414.262 144.659 412.652C142.973 411.043 141.958 408.855 141.818 406.529L128.822 154.848C128.75 153.729 128.91 152.606 129.292 151.552C129.674 150.497 130.27 149.532 131.042 148.719C131.814 147.905 132.746 147.259 133.78 146.823C134.813 146.386 135.925 146.167 137.047 146.18H281.967C284.296 146.211 286.528 147.121 288.213 148.729C289.899 150.337 290.914 152.523 291.055 154.848L304.028 406.529C304.1 407.647 303.94 408.768 303.56 409.822C303.179 410.876 302.586 411.84 301.816 412.654C301.047 413.468 300.118 414.115 299.087 414.555C298.056 414.994 296.946 415.217 295.826 415.208Z" fill="#407BFF"/>
<path opacity="0.8" d="M295.826 415.208H150.906C148.576 415.175 146.344 414.262 144.659 412.652C142.973 411.043 141.958 408.855 141.818 406.529L128.822 154.848C128.75 153.729 128.91 152.606 129.292 151.552C129.674 150.497 130.27 149.532 131.042 148.719C131.814 147.905 132.746 147.259 133.78 146.823C134.813 146.386 135.925 146.167 137.047 146.18H281.967C284.296 146.211 286.528 147.121 288.213 148.729C289.899 150.337 290.914 152.523 291.055 154.848L304.028 406.529C304.1 407.647 303.94 408.768 303.56 409.822C303.179 410.876 302.586 411.84 301.816 412.654C301.047 413.468 300.118 414.115 299.087 414.555C298.056 414.994 296.946 415.217 295.826 415.208Z" fill="white"/>
<path d="M267.664 137.979H251.635V139.115H267.664V137.979Z" fill="#407BFF"/>
<path d="M246.08 137.979H240.207V139.115H246.08V137.979Z" fill="#407BFF"/>
<path d="M302.062 399.236H163.47C161.239 399.214 159.098 398.348 157.479 396.811C155.86 395.275 154.884 393.182 154.746 390.954L142.341 150.236C142.272 149.165 142.425 148.091 142.791 147.081C143.156 146.072 143.727 145.149 144.466 144.37C145.205 143.592 146.097 142.974 147.086 142.556C148.075 142.139 149.14 141.93 150.213 141.943H288.805C291.037 141.968 293.176 142.837 294.793 144.376C296.41 145.914 297.384 148.008 297.518 150.236L309.924 390.954C309.992 392.024 309.84 393.097 309.474 394.105C309.109 395.113 308.54 396.035 307.802 396.812C307.064 397.59 306.173 398.206 305.185 398.624C304.198 399.041 303.134 399.249 302.062 399.236Z" fill="#407BFF"/>
<path d="M302.062 393.704H163.47C162.658 393.676 161.883 393.35 161.295 392.789C160.706 392.228 160.345 391.47 160.278 390.659L147.862 149.952C147.834 149.632 147.874 149.309 147.98 149.006C148.085 148.702 148.254 148.425 148.475 148.191C148.697 147.958 148.965 147.775 149.263 147.654C149.561 147.532 149.881 147.475 150.202 147.487H288.794C289.605 147.518 290.376 147.844 290.962 148.405C291.548 148.966 291.909 149.723 291.975 150.531L304.448 391.238C304.475 391.557 304.435 391.879 304.33 392.181C304.224 392.483 304.056 392.76 303.836 392.993C303.616 393.225 303.349 393.409 303.054 393.532C302.758 393.654 302.439 393.713 302.119 393.704H302.062ZM150.202 147.771C149.92 147.762 149.638 147.812 149.376 147.917C149.114 148.023 148.877 148.182 148.68 148.384C148.49 148.594 148.345 148.84 148.253 149.108C148.161 149.375 148.125 149.659 148.146 149.941L160.551 390.648C160.614 391.385 160.945 392.074 161.48 392.584C162.016 393.095 162.72 393.392 163.459 393.42H302.051C302.332 393.431 302.612 393.382 302.873 393.276C303.133 393.17 303.368 393.01 303.562 392.806C303.756 392.599 303.904 392.354 303.996 392.085C304.088 391.817 304.122 391.532 304.096 391.25L291.702 150.543C291.642 149.807 291.313 149.118 290.78 148.607C290.246 148.096 289.544 147.799 288.805 147.771H150.202Z" fill="white"/>
<path opacity="0.3" d="M253.586 235.215C269.349 219.04 268.322 192.473 251.293 175.878C234.263 159.283 207.68 158.943 191.916 175.119C176.153 191.295 177.179 217.861 194.209 234.456C211.239 251.051 237.822 251.391 253.586 235.215Z" fill="white"/>
<path d="M256.736 205.173C257.054 210.756 255.931 216.326 253.476 221.35C250.818 226.738 246.691 231.266 241.572 234.411C236.453 237.556 230.55 239.191 224.542 239.128C218.316 239.072 212.21 237.405 206.819 234.29C201.428 231.174 196.936 226.716 193.779 221.35C190.837 216.442 189.144 210.887 188.849 205.173C188.569 200.791 189.196 196.398 190.692 192.269C192.187 188.14 194.519 184.364 197.541 181.178C200.563 177.992 204.21 175.464 208.254 173.752C212.298 172.04 216.652 171.181 221.043 171.229C230.182 171.325 238.946 174.879 245.569 181.178C252.192 187.476 256.182 196.05 256.736 205.173Z" fill="white"/>
<path d="M253.442 221.35C250.784 226.738 246.657 231.266 241.538 234.411C236.419 237.556 230.516 239.191 224.508 239.128C218.282 239.072 212.176 237.405 206.785 234.29C201.394 231.174 196.902 226.716 193.745 221.35C202.378 215.388 212.631 212.216 223.122 212.262C233.894 212.302 244.424 215.458 253.442 221.35Z" fill="#407BFF"/>
<path d="M233.275 204.384C238.954 198.556 238.582 188.983 232.444 183.001C226.306 177.02 216.727 176.896 211.048 182.723C205.368 188.551 205.74 198.124 211.878 204.106C218.016 210.087 227.595 210.211 233.275 204.384Z" fill="#407BFF"/>
<path d="M282.194 305.584H173.672C172.726 305.574 171.82 305.207 171.135 304.555C170.45 303.904 170.037 303.017 169.98 302.074L169.162 286.17C169.134 285.717 169.199 285.264 169.354 284.838C169.509 284.412 169.75 284.023 170.063 283.694C170.375 283.366 170.752 283.106 171.17 282.929C171.587 282.753 172.037 282.665 172.49 282.671H281.012C281.956 282.68 282.861 283.046 283.545 283.695C284.23 284.344 284.644 285.228 284.704 286.17L285.522 302.074C285.552 302.527 285.488 302.982 285.333 303.409C285.179 303.836 284.938 304.227 284.626 304.557C284.313 304.886 283.936 305.148 283.517 305.325C283.099 305.501 282.648 305.59 282.194 305.584Z" fill="white"/>
<path opacity="0.3" d="M248.966 273.89H203.639C202.69 273.883 201.78 273.515 201.092 272.861C200.404 272.207 199.991 271.316 199.936 270.368L199.766 266.96C199.736 266.507 199.8 266.052 199.954 265.625C200.109 265.198 200.35 264.807 200.662 264.477C200.975 264.147 201.352 263.886 201.771 263.709C202.189 263.532 202.64 263.444 203.094 263.45H248.409C249.354 263.46 250.261 263.827 250.946 264.478C251.631 265.13 252.044 266.016 252.101 266.96L252.283 270.368C252.311 270.821 252.246 271.274 252.092 271.7C251.937 272.127 251.698 272.517 251.387 272.847C251.076 273.177 250.701 273.44 250.284 273.619C249.868 273.798 249.419 273.89 248.966 273.89Z" fill="black"/>
<path opacity="0.3" d="M265.824 382.048H197.925C196.317 382.028 194.777 381.402 193.612 380.293C192.446 379.185 191.743 377.678 191.643 376.073L191.246 368.234C191.205 367.464 191.323 366.694 191.59 365.97C191.858 365.246 192.27 364.585 192.801 364.026C193.333 363.467 193.972 363.022 194.681 362.718C195.391 362.414 196.154 362.258 196.926 362.259H264.802C266.409 362.279 267.95 362.906 269.115 364.014C270.28 365.122 270.983 366.63 271.084 368.234L271.481 376.073C271.521 376.841 271.405 377.61 271.139 378.332C270.873 379.054 270.463 379.715 269.934 380.273C269.405 380.832 268.767 381.278 268.061 381.583C267.355 381.888 266.594 382.046 265.824 382.048Z" fill="black"/>
<path d="M284.182 344.049H175.648C174.704 344.037 173.799 343.668 173.114 343.017C172.43 342.367 172.016 341.481 171.956 340.539L171.138 324.635C171.11 324.182 171.176 323.728 171.331 323.301C171.486 322.875 171.727 322.485 172.039 322.156C172.351 321.826 172.728 321.565 173.146 321.387C173.563 321.21 174.013 321.12 174.467 321.124H282.989C283.934 321.134 284.841 321.502 285.526 322.153C286.211 322.804 286.624 323.691 286.681 324.635L287.51 340.539C287.537 340.991 287.47 341.444 287.314 341.87C287.159 342.296 286.918 342.685 286.606 343.014C286.294 343.343 285.918 343.605 285.501 343.783C285.084 343.961 284.635 344.051 284.182 344.049Z" fill="white"/>
<path d="M187.44 294.122C187.471 294.624 187.399 295.127 187.227 295.6C187.055 296.072 186.787 296.504 186.441 296.869C186.094 297.234 185.676 297.523 185.213 297.719C184.75 297.914 184.251 298.013 183.748 298.007C182.703 297.994 181.702 297.587 180.945 296.866C180.188 296.145 179.733 295.165 179.67 294.122C179.637 293.62 179.708 293.117 179.879 292.645C180.049 292.172 180.316 291.74 180.661 291.375C181.007 291.01 181.424 290.721 181.887 290.525C182.35 290.329 182.848 290.231 183.35 290.237C184.396 290.249 185.399 290.656 186.158 291.377C186.916 292.097 187.374 293.078 187.44 294.122Z" fill="#263238"/>
<path d="M199.402 294.122C199.435 294.623 199.364 295.126 199.193 295.599C199.023 296.071 198.756 296.504 198.411 296.868C198.065 297.233 197.648 297.523 197.185 297.719C196.722 297.914 196.224 298.013 195.721 298.007C194.676 297.997 193.673 297.59 192.916 296.869C192.158 296.148 191.704 295.166 191.643 294.122C191.61 293.62 191.681 293.117 191.852 292.645C192.023 292.172 192.289 291.74 192.635 291.375C192.98 291.01 193.398 290.721 193.86 290.525C194.323 290.329 194.821 290.231 195.324 290.237C196.37 290.246 197.372 290.653 198.13 291.374C198.887 292.096 199.342 293.078 199.402 294.122Z" fill="#263238"/>
<path d="M211.296 294.122C211.329 294.623 211.258 295.126 211.087 295.599C210.917 296.071 210.65 296.504 210.304 296.869C209.959 297.233 209.542 297.523 209.079 297.719C208.616 297.915 208.118 298.013 207.615 298.007C206.569 297.995 205.567 297.587 204.808 296.867C204.05 296.146 203.592 295.166 203.526 294.122C203.494 293.62 203.567 293.117 203.739 292.644C203.911 292.171 204.179 291.739 204.525 291.375C204.871 291.01 205.289 290.721 205.753 290.525C206.216 290.329 206.715 290.231 207.218 290.237C208.263 290.249 209.264 290.657 210.021 291.377C210.777 292.098 211.233 293.079 211.296 294.122Z" fill="#263238"/>
<path d="M223.281 294.122C223.312 294.623 223.24 295.125 223.069 295.597C222.897 296.069 222.631 296.5 222.285 296.865C221.94 297.229 221.524 297.519 221.062 297.715C220.6 297.912 220.102 298.011 219.6 298.007C218.554 297.995 217.551 297.587 216.793 296.867C216.035 296.146 215.576 295.166 215.511 294.122C215.479 293.621 215.552 293.119 215.723 292.647C215.894 292.175 216.161 291.743 216.506 291.379C216.851 291.014 217.268 290.725 217.73 290.528C218.192 290.332 218.689 290.233 219.191 290.237C220.237 290.249 221.24 290.656 221.998 291.377C222.757 292.097 223.215 293.078 223.281 294.122Z" fill="#263238"/>
<path d="M189.451 332.564C189.484 333.065 189.413 333.568 189.242 334.041C189.071 334.514 188.805 334.946 188.459 335.311C188.114 335.676 187.696 335.965 187.234 336.161C186.771 336.357 186.273 336.455 185.77 336.449C184.724 336.437 183.721 336.03 182.963 335.309C182.204 334.589 181.746 333.608 181.68 332.564C181.649 332.062 181.722 331.559 181.894 331.086C182.066 330.614 182.333 330.181 182.68 329.817C183.026 329.452 183.444 329.163 183.907 328.967C184.371 328.771 184.87 328.673 185.372 328.679C186.417 328.691 187.419 329.099 188.175 329.82C188.932 330.54 189.388 331.521 189.451 332.564Z" fill="#263238"/>
<path d="M201.39 332.564C201.421 333.065 201.349 333.567 201.178 334.039C201.006 334.511 200.74 334.943 200.395 335.307C200.049 335.672 199.633 335.961 199.171 336.157C198.709 336.354 198.211 336.453 197.709 336.449C196.663 336.437 195.661 336.03 194.902 335.309C194.144 334.589 193.686 333.608 193.62 332.564C193.587 332.063 193.658 331.56 193.829 331.087C193.999 330.614 194.266 330.182 194.611 329.817C194.957 329.453 195.374 329.163 195.837 328.967C196.3 328.771 196.798 328.673 197.3 328.679C198.347 328.691 199.349 329.098 200.108 329.819C200.866 330.539 201.324 331.52 201.39 332.564Z" fill="#263238"/>
<path d="M213.329 332.564C213.361 333.066 213.288 333.569 213.116 334.042C212.944 334.514 212.677 334.947 212.33 335.311C211.984 335.676 211.566 335.965 211.102 336.161C210.639 336.357 210.14 336.455 209.637 336.449C208.592 336.439 207.589 336.033 206.832 335.311C206.075 334.59 205.62 333.608 205.559 332.564C205.526 332.063 205.597 331.56 205.768 331.087C205.939 330.614 206.205 330.182 206.551 329.817C206.896 329.453 207.314 329.163 207.776 328.967C208.239 328.771 208.737 328.673 209.24 328.679C210.286 328.691 211.289 329.098 212.047 329.819C212.806 330.539 213.264 331.52 213.329 332.564Z" fill="#263238"/>
<path d="M225.257 332.564C225.29 333.065 225.219 333.568 225.049 334.041C224.878 334.514 224.612 334.946 224.266 335.311C223.92 335.676 223.503 335.965 223.04 336.161C222.578 336.357 222.079 336.455 221.577 336.449C220.531 336.437 219.528 336.03 218.77 335.309C218.011 334.589 217.553 333.608 217.487 332.564C217.456 332.062 217.529 331.559 217.701 331.086C217.872 330.614 218.14 330.181 218.486 329.817C218.833 329.452 219.251 329.163 219.714 328.967C220.178 328.771 220.676 328.673 221.179 328.679C222.225 328.689 223.228 329.095 223.985 329.817C224.742 330.538 225.197 331.52 225.257 332.564Z" fill="#263238"/>
<path d="M237.197 332.564C237.23 333.065 237.159 333.568 236.988 334.041C236.817 334.514 236.551 334.946 236.205 335.311C235.86 335.676 235.442 335.965 234.98 336.161C234.517 336.357 234.019 336.455 233.516 336.449C232.47 336.437 231.467 336.03 230.709 335.309C229.95 334.589 229.492 333.608 229.427 332.564C229.395 332.063 229.468 331.561 229.639 331.089C229.81 330.617 230.077 330.185 230.422 329.821C230.767 329.457 231.184 329.167 231.646 328.971C232.108 328.774 232.605 328.675 233.107 328.679C234.153 328.691 235.156 329.098 235.914 329.819C236.673 330.539 237.131 331.52 237.197 332.564Z" fill="#263238"/>
<path d="M249.136 332.564C249.167 333.066 249.095 333.569 248.923 334.042C248.751 334.514 248.483 334.947 248.137 335.311C247.79 335.676 247.372 335.965 246.909 336.161C246.446 336.357 245.947 336.455 245.444 336.449C244.399 336.437 243.398 336.029 242.641 335.308C241.885 334.588 241.429 333.607 241.366 332.564C241.333 332.063 241.404 331.56 241.575 331.087C241.745 330.614 242.012 330.182 242.357 329.817C242.703 329.453 243.12 329.163 243.583 328.967C244.046 328.771 244.544 328.673 245.047 328.679C246.093 328.691 247.095 329.098 247.854 329.819C248.612 330.539 249.07 331.52 249.136 332.564Z" fill="#263238"/>
<path d="M378.288 200.64C378.572 201.072 378.72 201.299 378.901 201.606L379.413 202.447C379.742 203.015 380.037 203.583 380.321 204.139C380.889 205.275 381.457 206.411 381.912 207.547C382.864 209.803 383.683 212.113 384.366 214.465C385.741 219.112 386.647 223.884 387.069 228.711L387.149 229.608C387.158 229.79 387.158 229.972 387.149 230.154V230.756C387.168 231.546 387.122 232.336 387.012 233.119C386.795 234.569 386.414 235.991 385.876 237.356C384.878 239.794 383.556 242.087 381.946 244.172C378.942 248.019 375.377 251.393 371.37 254.18L368.234 250.511C371.087 247.288 373.614 243.791 375.777 240.071C376.751 238.383 377.514 236.582 378.049 234.709C378.266 233.915 378.392 233.1 378.424 232.278C378.459 231.927 378.459 231.573 378.424 231.221V230.983C378.436 230.877 378.436 230.771 378.424 230.665L378.288 229.87C377.557 225.636 376.525 221.46 375.198 217.374C374.539 215.34 373.733 213.375 372.926 211.455C372.528 210.489 372.074 209.547 371.62 208.638L370.915 207.297L370.563 206.672L370.268 206.173L378.288 200.64Z" fill="#803E3C"/>
<path d="M367.723 254.203L371.836 262.893L375.096 255.543C375.096 255.543 372.199 249.182 368.28 249.772L367.723 254.203Z" fill="#7F3E3B"/>
<path d="M374.778 263.325L378.049 257.963L375.096 255.543L371.836 262.893L374.778 263.325Z" fill="#7F3E3B"/>
<path d="M356.284 463.738C357.134 463.717 357.98 463.602 358.806 463.397C358.847 463.384 358.885 463.361 358.915 463.329C358.945 463.297 358.966 463.258 358.976 463.215C358.983 463.172 358.977 463.127 358.959 463.086C358.941 463.046 358.911 463.012 358.874 462.988C358.544 462.772 355.659 460.909 354.546 461.409C354.422 461.467 354.316 461.556 354.238 461.668C354.161 461.779 354.114 461.91 354.103 462.045C354.068 462.251 354.084 462.462 354.15 462.66C354.215 462.858 354.327 463.037 354.477 463.181C354.992 463.579 355.634 463.777 356.284 463.738ZM358.158 463.068C356.511 463.408 355.261 463.352 354.75 462.909C354.646 462.805 354.569 462.677 354.527 462.536C354.486 462.395 354.48 462.246 354.512 462.102C354.512 461.909 354.625 461.852 354.705 461.818C355.318 461.545 356.988 462.352 358.158 463.068Z" fill="#407BFF"/>
<path d="M358.749 463.397H358.862C358.897 463.375 358.925 463.345 358.945 463.309C358.964 463.273 358.975 463.233 358.976 463.193C358.976 463.079 358.976 460.341 357.931 459.421C357.803 459.306 357.651 459.22 357.486 459.169C357.321 459.118 357.148 459.103 356.977 459.126C356.797 459.127 356.624 459.19 356.486 459.304C356.347 459.417 356.252 459.575 356.216 459.751C356 460.83 357.726 462.875 358.635 463.397H358.749ZM357.124 459.546C357.216 459.543 357.308 459.559 357.394 459.592C357.479 459.626 357.558 459.675 357.624 459.739C358.223 460.623 358.533 461.671 358.51 462.738C357.601 462.011 356.522 460.466 356.659 459.819C356.659 459.716 356.738 459.58 357.022 459.546H357.124Z" fill="#407BFF"/>
<path d="M345.56 459.103C345.587 459.07 345.604 459.03 345.61 458.988C345.616 458.945 345.611 458.902 345.594 458.863C345.578 458.824 345.552 458.789 345.518 458.763C345.483 458.738 345.443 458.722 345.401 458.717C344.935 458.717 340.857 458.524 339.925 459.523V459.592C339.848 459.69 339.798 459.806 339.78 459.93C339.762 460.054 339.777 460.18 339.823 460.296C339.884 460.491 339.991 460.668 340.135 460.813C340.28 460.957 340.457 461.064 340.652 461.125C341.97 461.534 344.299 460.046 345.571 459.126L345.56 459.103ZM340.266 459.819C340.777 459.273 343.027 459.126 344.708 459.148C342.947 460.353 341.482 460.921 340.743 460.693C340.615 460.654 340.497 460.584 340.402 460.489C340.307 460.394 340.237 460.277 340.198 460.148C340.175 460.104 340.163 460.056 340.163 460.006C340.163 459.957 340.175 459.908 340.198 459.864L340.266 459.819Z" fill="#407BFF"/>
<path d="M345.56 459.103C345.577 459.068 345.586 459.029 345.586 458.989C345.586 458.95 345.577 458.911 345.56 458.876C345.503 458.785 344.231 456.604 342.731 456.149C342.516 456.086 342.29 456.068 342.067 456.095C341.845 456.123 341.63 456.195 341.436 456.308C340.891 456.627 340.857 457.001 340.925 457.24C341.22 458.297 344.117 459.228 345.367 459.217C345.406 459.216 345.444 459.205 345.478 459.185C345.512 459.165 345.54 459.137 345.56 459.103ZM341.482 456.831C341.546 456.768 341.618 456.715 341.697 456.672C341.838 456.583 341.996 456.525 342.161 456.504C342.326 456.482 342.493 456.497 342.652 456.547C343.64 456.808 344.56 458.081 344.98 458.705C343.629 458.558 341.572 457.728 341.402 457.092C341.388 457.044 341.387 456.993 341.402 456.944C341.416 456.896 341.443 456.853 341.482 456.82V456.831Z" fill="#407BFF"/>
<path d="M358.067 167.367C356.931 173.047 354.477 185.327 358.419 189.099C358.419 189.099 356.874 194.779 346.389 194.779C334.847 194.779 340.879 189.099 340.879 189.099C347.173 187.599 347.014 182.919 345.912 178.534L358.067 167.367Z" fill="#7F3E3B"/>
<path d="M338.846 154.053C338.91 154.063 338.975 154.063 339.039 154.053C339.093 154.026 339.141 153.989 339.181 153.944C339.22 153.899 339.251 153.846 339.27 153.789C339.289 153.732 339.296 153.672 339.292 153.612C339.287 153.552 339.271 153.493 339.244 153.44C338.938 152.792 338.482 152.226 337.912 151.791C337.343 151.357 336.678 151.065 335.972 150.94C335.854 150.93 335.736 150.966 335.643 151.04C335.55 151.114 335.489 151.22 335.472 151.338C335.459 151.457 335.494 151.576 335.568 151.669C335.643 151.763 335.751 151.824 335.87 151.838C336.427 151.945 336.95 152.183 337.397 152.533C337.843 152.882 338.2 153.333 338.437 153.848C338.481 153.916 338.542 153.97 338.614 154.006C338.686 154.042 338.766 154.058 338.846 154.053Z" fill="#263238"/>
<path d="M335.404 159.04C334.51 160.698 333.394 162.227 332.087 163.584C332.441 163.908 332.861 164.151 333.318 164.296C333.775 164.441 334.258 164.485 334.734 164.425L335.404 159.04Z" fill="#630F0F"/>
<path d="M336.256 157.756C336.165 158.517 335.677 159.085 335.188 159.029C334.7 158.972 334.359 158.302 334.45 157.54C334.541 156.779 335.029 156.211 335.586 156.268C336.142 156.325 336.336 156.995 336.256 157.756Z" fill="#263238"/>
<path d="M335.733 156.336L333.984 155.632C333.984 155.632 334.722 157.132 335.733 156.336Z" fill="#263238"/>
<path d="M355.591 456.945L346.321 459.103L340.686 437.792L349.956 435.633L355.591 456.945Z" fill="#7F3E3B"/>
<path d="M369.813 463.17H360.305L361.044 441.143H370.563L369.813 463.17Z" fill="#7F3E3B"/>
<path d="M359.544 462.068H370.234C370.419 462.066 370.599 462.132 370.739 462.254C370.879 462.375 370.97 462.543 370.995 462.727L372.21 471.179C372.235 471.392 372.213 471.609 372.147 471.814C372.082 472.018 371.973 472.207 371.83 472.367C371.686 472.527 371.51 472.655 371.313 472.742C371.116 472.828 370.903 472.873 370.688 472.871C366.962 472.815 365.167 472.587 360.464 472.587C357.567 472.587 353.341 472.894 349.354 472.894C345.367 472.894 345.14 468.941 346.809 468.589C354.262 466.975 355.443 464.772 357.954 462.659C358.397 462.28 358.961 462.07 359.544 462.068Z" fill="#263238"/>
<path d="M345.503 457.683L355.216 453.219C355.381 453.14 355.569 453.124 355.745 453.174C355.92 453.225 356.072 453.337 356.17 453.491L360.816 460.671C360.925 460.855 360.993 461.061 361.018 461.274C361.042 461.487 361.021 461.702 360.957 461.907C360.893 462.111 360.786 462.3 360.645 462.461C360.503 462.622 360.329 462.751 360.135 462.84C356.727 464.34 355 464.897 350.729 466.862C348.104 468.066 342.777 470.838 339.164 472.542C335.552 474.246 333.689 470.713 335.052 469.691C341.152 465.147 342.902 461.886 344.299 458.921C344.535 458.375 344.964 457.935 345.503 457.683Z" fill="#263238"/>
<path opacity="0.2" d="M340.686 437.792L343.708 449.22L352.864 446.618L349.968 435.633L340.686 437.792Z" fill="black"/>
<path opacity="0.2" d="M370.563 441.143H361.043L360.669 452.503H370.188L370.563 441.143Z" fill="black"/>
<path d="M374.88 191.257C378.833 192.132 383.059 206.343 383.059 206.343L371.881 218.237C371.881 218.237 362.6 204.878 364.497 199.97C366.417 194.847 370.166 190.235 374.88 191.257Z" fill="#263238"/>
<path opacity="0.4" d="M368.564 200.311C366.565 198.482 365.213 199.027 364.293 200.481C363.384 204.707 368.768 213.557 370.938 216.908C371.938 212.909 373.085 204.48 368.564 200.311Z" fill="black"/>
<path d="M324.794 191.541C324.794 191.541 320.25 193.131 329.338 248.966H367.962C367.314 233.244 367.292 223.542 374.778 191.257C369.366 190.14 363.879 189.419 358.363 189.099C352.524 188.678 346.662 188.678 340.823 189.099C333.336 189.792 324.794 191.541 324.794 191.541Z" fill="#263238"/>
<path opacity="0.4" d="M324.442 212.966C324.692 215.681 325.021 218.737 325.453 222.19C328.622 219.339 331.212 211.228 330.258 206.502C327.994 208.34 326.031 210.521 324.442 212.966Z" fill="black"/>
<path d="M328.577 204.48C326.492 209.726 324.146 214.863 321.545 219.873C318.974 225.063 315.932 230.007 312.457 234.641L311.73 235.538L311.366 235.981C311.241 236.129 311.139 236.265 310.946 236.47C310.262 237.216 309.501 237.886 308.674 238.469C307.213 239.481 305.613 240.276 303.925 240.832C300.981 241.772 297.925 242.315 294.837 242.445C289.055 242.675 283.267 242.16 277.616 240.912L278.24 236.14C280.853 236.14 283.591 236.14 286.192 235.924C288.805 235.796 291.408 235.508 293.985 235.061C296.379 234.688 298.721 234.032 300.96 233.107C301.865 232.721 302.71 232.208 303.471 231.585C303.761 231.342 304.024 231.067 304.255 230.767C304.255 230.767 304.391 230.585 304.482 230.46L304.743 230.085L305.277 229.336C308.128 224.933 310.667 220.336 312.877 215.579C315.149 210.751 317.421 205.741 319.5 200.811L328.577 204.48Z" fill="#803E3C"/>
<path d="M324.794 191.541C320.057 192.677 314.24 205.673 314.24 205.673L324.055 220.1C324.055 220.1 337.131 203.639 335.574 198.618C333.984 193.381 330.576 190.132 324.794 191.541Z" fill="#263238"/>
<path d="M280.967 236.867L272.776 233.084L271.958 241.23C271.958 241.23 278.774 243.24 282.182 241.23L280.967 236.867Z" fill="#7F3E3B"/>
<path d="M267.88 232.267L267.096 238.469L271.958 241.23L272.776 233.084L267.88 232.267Z" fill="#7F3E3B"/>
<path d="M362.18 158.313C360.441 167.594 359.908 171.57 354.591 175.785C346.639 182.124 335.563 177.966 334.495 168.355C333.518 159.699 336.517 145.976 346.139 143.363C348.259 142.778 350.493 142.746 352.628 143.27C354.764 143.794 356.729 144.856 358.338 146.355C359.946 147.854 361.144 149.74 361.816 151.834C362.489 153.927 362.614 156.158 362.18 158.313Z" fill="#7F3E3B"/>
<path d="M341.788 160.267C341.254 165.004 341.05 177.307 351.456 177.693C364.19 178.159 368.007 167.276 366.871 162.925C373.505 157.529 374.46 148.248 367.008 141.148C359.555 134.048 343.152 138.013 338.608 144.931C332.848 153.508 341.788 160.267 341.788 160.267Z" fill="#263238"/>
<path d="M354.546 143.908C353.932 138.91 354.409 135.468 359.09 135.468C363.77 135.468 370.154 137.161 372.494 141.943C374.835 146.726 375.028 154.212 368.496 153.451C361.964 152.69 355.284 149.884 354.546 143.908Z" fill="#407BFF"/>
<path d="M361.793 142.704C360.657 136.752 365.985 119.984 378.924 118.848C384.922 118.337 387.694 124.79 384.604 125.857C390.284 125.789 393.919 133.298 388.626 134.423C392.806 137.104 391.772 142.602 385.808 145.306C381.367 147.351 363.327 150.952 361.793 142.704Z" fill="#263238"/>
<path d="M375.618 149.1C371.449 149.1 367.098 148.487 364.395 146.68C363.639 146.225 363.002 145.595 362.538 144.845C362.074 144.094 361.795 143.243 361.725 142.364C361.722 142.289 361.747 142.216 361.795 142.159C361.844 142.102 361.912 142.065 361.986 142.057C362.024 142.052 362.062 142.055 362.099 142.066C362.135 142.077 362.169 142.095 362.197 142.12C362.226 142.144 362.25 142.175 362.266 142.209C362.283 142.243 362.292 142.28 362.293 142.318C362.362 143.112 362.616 143.879 363.037 144.556C363.457 145.233 364.031 145.801 364.713 146.215C369.859 149.623 381.753 148.487 385.456 147.351C388.66 146.305 390.829 144.272 391.261 141.932C391.396 141.073 391.29 140.194 390.955 139.392C390.62 138.59 390.069 137.896 389.364 137.388C389.337 137.362 389.315 137.332 389.3 137.297C389.286 137.263 389.278 137.226 389.278 137.189C389.278 137.152 389.286 137.115 389.3 137.081C389.315 137.047 389.337 137.016 389.364 136.99C389.417 136.938 389.488 136.909 389.563 136.909C389.637 136.909 389.709 136.938 389.762 136.99C390.555 137.569 391.171 138.356 391.542 139.265C391.913 140.174 392.024 141.168 391.863 142.136C391.397 144.692 389.091 146.873 385.683 147.987C382.395 148.816 379.008 149.19 375.618 149.1Z" fill="#263238"/>
<path d="M338.892 159.04C337.834 160.524 337.397 162.362 337.676 164.163C338.051 166.549 340.368 166.708 342.05 165.186C343.731 163.664 345.196 160.914 343.958 158.938C343.683 158.511 343.303 158.161 342.855 157.923C342.406 157.684 341.904 157.564 341.396 157.574C340.888 157.585 340.392 157.725 339.953 157.981C339.515 158.238 339.149 158.602 338.892 159.04Z" fill="#7F3E3B"/>
<path d="M339.539 248.966C339.539 248.966 345.06 314.274 350.797 351.081C355.42 380.81 359.078 450.299 359.078 450.299H372.051C372.051 450.299 376.664 382.889 374.323 353.489C368.382 279.081 381.639 273.015 367.996 248.977L339.539 248.966Z" fill="#407BFF"/>
<path opacity="0.4" d="M355.875 273.651C350.733 279.047 346.584 285.308 343.617 292.145C345.128 306.822 346.923 323.112 348.832 337.381C356.663 317.107 359.09 295.146 355.875 273.651Z" fill="black"/>
<path d="M330.462 248.557C330.462 248.557 318.478 319.886 316.592 352.035C321.295 381.764 340.539 444.608 340.539 444.608L352.342 440.325C352.342 440.325 345.81 371.801 338.71 353.046C354.693 299.234 366.44 285.625 363.02 248.966C354.83 248.966 330.462 248.557 330.462 248.557Z" fill="#407BFF"/>
<path d="M338.96 447.743L354.909 443.415L354 437.053L336.926 441.677L338.96 447.743Z" fill="#263238"/>
<path d="M357.295 450.56H373.824L374.687 444.767L357.204 444.176L357.295 450.56Z" fill="#263238"/>
<path d="M368.564 246.694L370.302 250.159C370.438 250.431 370.12 250.704 369.677 250.704H329.145C328.804 250.704 328.508 250.533 328.486 250.306L328.134 246.898C328.134 246.66 328.418 246.455 328.792 246.455H367.928C368.045 246.439 368.165 246.453 368.276 246.494C368.387 246.536 368.486 246.604 368.564 246.694Z" fill="#407BFF"/>
<path opacity="0.5" d="M368.564 246.694L370.302 250.159C370.438 250.431 370.12 250.704 369.677 250.704H329.145C328.804 250.704 328.508 250.533 328.486 250.306L328.134 246.898C328.134 246.66 328.418 246.455 328.792 246.455H367.928C368.045 246.439 368.165 246.453 368.276 246.494C368.387 246.536 368.486 246.604 368.564 246.694Z" fill="black"/>
<path d="M363.304 251.056H364.349C364.565 251.056 364.724 250.942 364.713 250.817L364.213 246.273C364.213 246.137 364.02 246.035 363.815 246.035H362.759C362.554 246.035 362.395 246.137 362.407 246.273L362.895 250.817C362.918 250.965 363.1 251.056 363.304 251.056Z" fill="#407BFF"/>
<path d="M349.24 217.976C349.115 217.974 348.994 217.932 348.893 217.856C348.793 217.781 348.72 217.675 348.684 217.555C344.98 203.855 337.324 192.563 333.609 190.859C333.32 190.682 332.974 190.625 332.643 190.7C332.575 190.736 332.5 190.758 332.422 190.764C332.345 190.77 332.267 190.76 332.194 190.735C332.121 190.71 332.053 190.67 331.996 190.618C331.939 190.565 331.893 190.502 331.861 190.431C331.829 190.36 331.812 190.284 331.811 190.206C331.81 190.129 331.824 190.052 331.854 189.98C331.884 189.909 331.928 189.844 331.983 189.79C332.039 189.736 332.105 189.694 332.178 189.667C332.488 189.553 332.82 189.508 333.15 189.535C333.479 189.563 333.799 189.662 334.086 189.826C338.017 191.689 345.787 202.821 349.672 216.828C352.455 216.828 356.749 216.453 357.795 216.363C359.09 214.818 368.609 202.912 365.054 189.882C365.033 189.811 365.027 189.736 365.036 189.662C365.045 189.588 365.069 189.516 365.106 189.452C365.143 189.387 365.193 189.331 365.252 189.286C365.311 189.241 365.379 189.208 365.451 189.189C365.596 189.151 365.75 189.171 365.879 189.246C366.009 189.32 366.104 189.443 366.144 189.587C370.109 204.082 358.612 217.158 358.487 217.283C358.443 217.338 358.388 217.383 358.326 217.417C358.263 217.45 358.194 217.47 358.124 217.476C358.067 217.476 352.399 217.976 349.24 217.976Z" fill="#407BFF"/>
<path d="M368.064 225.996C361.873 214.397 359.34 213.579 358.238 209.853C359.072 207.77 360.264 205.848 361.759 204.173C361.009 203.957 359.396 203.639 358.351 203.446C358.465 202.935 358.59 202.435 358.703 201.947C357.566 201.819 356.416 201.873 355.295 202.106V200.97C353.852 200.656 352.37 200.56 350.899 200.686C351.028 201.223 351.153 201.769 351.274 202.322C350.138 202.537 348.411 202.89 347.582 203.128C349.193 204.953 350.377 207.115 351.047 209.456C347.707 215.192 334.734 252.067 355.841 254.896C376.947 257.724 374.244 237.606 368.064 225.996Z" fill="#407BFF"/>
<path opacity="0.4" d="M368.064 225.996C361.873 214.397 359.34 213.579 358.238 209.853C359.072 207.77 360.264 205.848 361.759 204.173C361.009 203.957 359.396 203.639 358.351 203.446C358.465 202.935 358.59 202.435 358.703 201.947C357.566 201.819 356.416 201.873 355.295 202.106V200.97C353.852 200.656 352.37 200.56 350.899 200.686C351.028 201.223 351.153 201.769 351.274 202.322C350.138 202.537 348.411 202.89 347.582 203.128C349.193 204.953 350.377 207.115 351.047 209.456C347.707 215.192 334.734 252.067 355.841 254.896C376.947 257.724 374.244 237.606 368.064 225.996Z" fill="white"/>
<path d="M350.183 208.354C350.052 208.939 349.995 209.538 350.013 210.137C350.013 210.558 351.149 210.842 352.41 210.967C353.671 211.092 358.965 211.296 358.794 210.705C358.624 210.115 359.056 209.308 359.078 208.808C359.101 208.308 356.977 208.286 355.193 208.354C353.41 208.422 350.536 207.718 350.183 208.354Z" fill="#407BFF"/>
<path d="M337.903 251.056H338.948C339.153 251.056 339.312 250.942 339.3 250.817L338.812 246.273C338.812 246.137 338.619 246.035 338.403 246.035H337.392C337.187 246.035 337.028 246.137 337.04 246.273L337.528 250.817C337.506 250.965 337.687 251.056 337.903 251.056Z" fill="#407BFF"/>
</svg>
