<svg width="580" height="580" viewBox="0 0 580 580" fill="none" xmlns="http://www.w3.org/2000/svg">
<path d="M580 443.582H0V443.872H580V443.582Z" fill="#E6E6E6"/>
<path d="M144.798 461.133H106.377V461.423H144.798V461.133Z" fill="#E6E6E6"/>
<path d="M94.2175 461.133H71.9536V461.423H94.2175V461.133Z" fill="#E6E6E6"/>
<path d="M244.243 465.401H221.98V465.691H244.243V465.401Z" fill="#E6E6E6"/>
<path d="M360.315 471.878H310.211V472.168H360.315V471.878Z" fill="#E6E6E6"/>
<path d="M299.883 471.878H292.537V472.168H299.883V471.878Z" fill="#E6E6E6"/>
<path d="M525.878 465.401H417.214V465.691H525.878V465.401Z" fill="#E6E6E6"/>
<path d="M274.936 391.848H50.9413C47.2908 391.848 44.3201 388.877 44.3201 385.227V70.3656C44.3201 66.7151 47.2908 63.7443 50.9413 63.7443H274.936C278.586 63.7443 281.556 66.7151 281.556 70.3656V385.227C281.556 388.877 278.586 391.848 274.936 391.848ZM50.9413 64.0355C47.4497 64.0355 44.6101 66.8752 44.6101 70.3668V385.228C44.6101 388.719 47.4497 391.559 50.9413 391.559H274.936C278.427 391.559 281.266 388.719 281.266 385.228V70.3656C281.266 66.8752 278.427 64.0343 274.936 64.0343L50.9413 64.0355Z" fill="#E6E6E6"/>
<path d="M525.839 391.848H301.846C298.196 391.848 295.226 388.877 295.226 385.227V70.3656C295.226 66.7151 298.196 63.7443 301.846 63.7443H525.839C529.491 63.7443 532.461 66.7151 532.461 70.3656V385.227C532.462 388.877 529.491 391.848 525.839 391.848ZM301.846 64.0355C298.355 64.0355 295.516 66.8752 295.516 70.3668V385.228C295.516 388.719 298.355 391.559 301.846 391.559H525.839C529.331 391.559 532.171 388.719 532.171 385.228V70.3656C532.171 66.8752 529.331 64.0343 525.839 64.0343L301.846 64.0355Z" fill="#E6E6E6"/>
<path d="M310.183 344.493H284.676V445.685H310.183V344.493Z" fill="#E0E0E0"/>
<path d="M305.339 445.686H310.183V431.905H300.259L305.339 445.686Z" fill="#FAFAFA"/>
<path d="M198.411 344.493H172.904V445.685H198.411V344.493Z" fill="#E0E0E0"/>
<path d="M310.184 344.493H194.183V437.23H310.184V344.493Z" fill="#FAFAFA"/>
<path d="M305.977 349.052V373.587H198.389V349.052H305.977ZM306.424 348.604H197.94V374.036H306.424V348.604Z" fill="#E0E0E0"/>
<path d="M199.027 445.686H194.183V431.905H204.107L199.027 445.686Z" fill="#FAFAFA"/>
<path d="M249.617 361.319C249.617 362.735 250.765 363.885 252.183 363.885C253.599 363.885 254.749 362.737 254.749 361.319C254.749 359.903 253.6 358.753 252.183 358.753C250.767 358.754 249.617 359.903 249.617 361.319Z" fill="#E6E6E6"/>
<path d="M305.977 378.594V403.129H198.389V378.594H305.977ZM306.424 378.146H197.94V403.578H306.424V378.146Z" fill="#E0E0E0"/>
<path d="M249.617 390.861C249.617 392.277 250.765 393.427 252.183 393.427C253.599 393.427 254.749 392.278 254.749 390.861C254.749 389.443 253.6 388.295 252.183 388.295C250.767 388.296 249.617 389.444 249.617 390.861Z" fill="#E6E6E6"/>
<path d="M305.977 408.136V432.671H198.389V408.136H305.977ZM306.424 407.688H197.94V433.12H306.424V407.688Z" fill="#E0E0E0"/>
<path d="M249.617 420.404C249.617 421.82 250.765 422.97 252.183 422.97C253.599 422.97 254.749 421.821 254.749 420.404C254.749 418.986 253.6 417.838 252.183 417.838C250.767 417.838 249.617 418.986 249.617 420.404Z" fill="#E6E6E6"/>
<path d="M182.828 285.727H157.32V445.686H182.828V285.727Z" fill="#E0E0E0"/>
<path d="M177.983 445.686H182.828V431.905H172.904L177.983 445.686Z" fill="#FAFAFA"/>
<path d="M87.4953 285.727H61.988V445.686H87.4953V285.727Z" fill="#E0E0E0"/>
<path d="M182.828 285.727H83.2682V437.23H182.828V285.727Z" fill="#FAFAFA"/>
<path d="M178.541 290.016V324.317H87.5544V290.016H178.541ZM179.069 289.488H87.0266V324.846H179.069V289.488Z" fill="#E0E0E0"/>
<path d="M178.541 328.486V419.472H135.203V328.486H178.541ZM179.069 327.959H134.674V420.002H179.069V327.959Z" fill="#E0E0E0"/>
<path d="M130.893 328.486V419.472H87.5544V328.486H130.893ZM131.422 327.959H87.0266V420.002H131.422V327.959Z" fill="#E0E0E0"/>
<path d="M88.1124 445.686H83.2682V431.905H93.192L88.1124 445.686Z" fill="#FAFAFA"/>
<path d="M130.483 307.167C130.483 308.584 131.631 309.733 133.048 309.733C134.465 309.733 135.614 308.584 135.614 307.167C135.614 305.75 134.466 304.601 133.048 304.601C131.631 304.602 130.483 305.75 130.483 307.167Z" fill="#E6E6E6"/>
<path d="M139.667 371.81C139.667 373.227 140.816 374.376 142.233 374.376C143.651 374.376 144.799 373.228 144.799 371.81C144.799 370.394 143.651 369.244 142.233 369.244C140.816 369.244 139.667 370.393 139.667 371.81Z" fill="#E6E6E6"/>
<path d="M121.297 371.81C121.297 373.227 122.445 374.376 123.862 374.376C125.279 374.376 126.428 373.228 126.428 371.81C126.428 370.394 125.28 369.244 123.862 369.244C122.446 369.244 121.297 370.393 121.297 371.81Z" fill="#E6E6E6"/>
<path d="M118.407 241.128H107.647C107.647 241.128 109.514 251.075 109.514 256.928C109.514 262.782 101.33 285.727 113.027 285.727C124.723 285.727 116.539 262.781 116.539 256.928C116.538 251.074 118.407 241.128 118.407 241.128Z" fill="#E0E0E0"/>
<path d="M77.4915 264.652V271.643C77.4915 279.388 83.8285 285.725 91.575 285.725H98.5663C106.312 285.725 112.649 279.388 112.649 271.643V264.652H77.4915Z" fill="#F5F5F5"/>
<path d="M226.974 329.747C226.974 337.858 236.058 344.494 247.16 344.494H257.181C268.285 344.494 277.369 337.858 277.369 329.747H226.974Z" fill="#E0E0E0"/>
<path d="M492.543 317.875C486.465 322.836 478.075 331.921 470.388 344.703C465.268 353.215 462.182 362.135 460.827 373.918C460.856 360.579 460.898 346.247 460.945 332.722C462.488 329.241 466.015 321.219 468.545 314.881C476.986 293.733 480.13 288.533 487.722 270.292C497.848 245.962 508.224 217.093 505.253 219.4C499.199 224.1 475.998 267.545 473.49 273.763C464.864 295.154 462.462 310.745 460.969 325.792C461.015 313.088 461.065 301.423 461.114 292.422C461.269 263.065 461.769 253.59 462.013 250.668C462.951 249.183 464.06 247.452 464.705 246.52C470.155 238.64 472.257 231.927 477.392 220.174C484.669 203.52 490.935 173.951 489.104 175.443C481.475 181.653 475.458 195.003 467.552 212.014C459.646 229.026 461.906 238.808 460.338 253.337C460.008 256.188 459.757 266.947 459.575 281.859C457.524 265.973 453.677 255.504 446.659 245.991C438.026 234.29 429.676 226.386 423.548 222.257C417.421 218.13 434.129 246.872 442.119 259.418C449.234 270.59 455.788 280.449 459.484 290.158C459.288 310.367 459.198 335.959 459.198 359.781C457.365 348.94 454.372 337.267 450.379 328.227C445.581 317.366 438.2 300.707 432.325 295.056C430.913 293.699 438.468 326.098 443.316 334.713C448.165 343.329 451.724 351.448 454.776 356.331C455.488 357.47 457.85 361.864 459.199 364.391C459.211 393.472 459.36 419.134 459.613 427.868H460.869C460.783 425.614 460.769 410.821 460.796 391.241C463.821 380.61 470.741 368.479 476.45 357.411C482.683 345.329 498.622 312.912 492.543 317.875Z" fill="#E0E0E0"/>
<path d="M478.43 445.686H442.072L439.328 410.046H481.175L478.43 445.686Z" fill="#F0F0F0"/>
<path d="M483.885 414.199H436.618L435.264 402.174H485.238L483.885 414.199Z" fill="#F5F5F5"/>
<path d="M144.142 87.5765H79.1213V158.973H144.142V87.5765Z" fill="#E0E0E0"/>
<path d="M151.184 87.5765H84.0223V158.973H151.184V87.5765Z" fill="#F5F5F5"/>
<path d="M145.557 153.347V93.2029L89.648 93.2029L89.648 153.347H145.557Z" fill="white"/>
<path d="M132.005 138.77V107.782H103.2V138.77H132.005Z" fill="#F5F5F5"/>
<path d="M475.659 95.8995H415.258V162.225H475.659V95.8995Z" fill="#E0E0E0"/>
<path d="M482.202 95.8995H419.811V162.225H482.202V95.8995Z" fill="#F5F5F5"/>
<path d="M476.974 156.998V101.127L425.038 101.127V156.998H476.974Z" fill="white"/>
<path d="M451.006 145.266C459.954 145.266 467.208 138.011 467.208 129.063C467.208 120.114 459.954 112.86 451.006 112.86C442.057 112.86 434.803 120.114 434.803 129.063C434.803 138.011 442.057 145.266 451.006 145.266Z" fill="#F5F5F5"/>
<path d="M211.687 130.149H163.454V183.112H211.687V130.149Z" fill="#E0E0E0"/>
<path d="M216.913 130.149H167.091V183.112H216.913V130.149Z" fill="#F5F5F5"/>
<path d="M212.739 178.939V134.323H171.265V178.939H212.739Z" fill="white"/>
<path d="M192.002 145.352L180.66 164.998H203.345L192.002 145.352Z" fill="#F5F5F5"/>
<path d="M290 495.971C414.215 495.971 514.911 490.09 514.911 482.836C514.911 475.582 414.215 469.701 290 469.701C165.785 469.701 65.0887 475.582 65.0887 482.836C65.0887 490.09 165.785 495.971 290 495.971Z" fill="#F5F5F5"/>
<path d="M405.125 189.581L393.619 184.916C393.619 184.916 378.435 212.608 374.086 214.006C368.168 215.908 355.929 221.197 348.655 222.188C347.675 223.334 346.058 226.948 346.212 228.266C355.97 231.52 377.407 227.199 381.996 223.792C392.457 216.021 405.125 189.581 405.125 189.581Z" fill="#E58A7B"/>
<path d="M408.668 183.297C410.808 191.231 399.186 207.166 399.186 207.166L383.918 198.601C383.918 198.601 386.765 192.051 390.25 185.38C395.877 174.607 406.224 174.244 408.668 183.297Z" fill="#407BFF"/>
<path opacity="0.2" d="M408.668 183.297C410.808 191.231 399.186 207.166 399.186 207.166L383.918 198.601C383.918 198.601 386.765 192.051 390.25 185.38C395.877 174.607 406.224 174.244 408.668 183.297Z" fill="black"/>
<path opacity="0.2" d="M390.006 202.012L396.002 205.373L397.051 186.969C393.571 189.651 391.102 197.721 390.006 202.012Z" fill="black"/>
<path d="M398.648 177.321C398.648 177.321 386.794 203.695 393.705 252.81C407.781 252.81 433.57 252.81 440.418 252.81C441.161 245.639 438.706 210.658 447.603 176.871C447.603 176.871 439.69 175.264 432.081 174.897C426.13 174.609 417.499 174.419 412.223 174.898C405.268 175.529 398.648 177.321 398.648 177.321Z" fill="#407BFF"/>
<path opacity="0.2" d="M398.648 177.321C398.648 177.321 386.794 203.695 393.705 252.81C407.781 252.81 433.57 252.81 440.418 252.81C441.161 245.639 438.706 210.658 447.603 176.871C447.603 176.871 439.69 175.264 432.081 174.897C426.13 174.609 417.499 174.419 412.223 174.898C405.268 175.529 398.648 177.321 398.648 177.321Z" fill="black"/>
<path d="M387.815 483.885C387.742 485.131 405.452 486.14 427.373 486.14C449.294 486.14 467.123 485.131 467.196 483.885C467.269 482.639 449.558 481.63 427.637 481.63C405.717 481.628 387.888 482.639 387.815 483.885Z" fill="#E8ECF1"/>
<path d="M420.084 452.583L411.771 455.786L418.899 474.287L427.212 471.084L420.084 452.583Z" fill="#E58A7B"/>
<path d="M455.939 474.967H447.205L444.002 454.741H452.735L455.939 474.967Z" fill="#E58A7B"/>
<path d="M446.644 473.955H456.456C456.814 473.955 457.108 474.203 457.165 474.551L458.435 482.314C458.568 483.119 457.89 483.881 457.065 483.867C453.643 483.808 451.99 483.607 447.676 483.607C445.022 483.607 439.537 483.884 435.87 483.884C432.284 483.884 431.938 480.259 433.458 479.93C440.273 478.458 442.927 476.428 445.195 474.492C445.603 474.143 446.122 473.955 446.644 473.955Z" fill="#263238"/>
<path d="M417.568 470.897L426.872 468.192C427.22 468.091 427.578 468.241 427.733 468.553L431.18 475.508C431.537 476.229 431.115 477.134 430.308 477.354C426.938 478.274 424.673 478.849 420.454 480.075C417.539 480.922 414.574 482.302 411.693 483.221C409.699 483.857 405.016 483.882 402.591 483.882C399.005 483.882 398.206 480.102 399.743 479.929C403.632 479.493 404.154 479.695 406.302 478.618C409.851 476.838 412.597 475.363 415.67 472.144C416.206 471.585 416.833 471.111 417.568 470.897Z" fill="#263238"/>
<path d="M350.126 222.104L340.516 218.06L336.559 228.707C336.559 228.707 342.105 229.712 348.439 228.707L350.126 222.104Z" fill="#E58A7B"/>
<path d="M333.374 217.799L333.12 224.883L336.559 228.707L340.516 218.06L333.374 217.799Z" fill="#E58A7B"/>
<path d="M420.115 452.562L411.801 455.771L415.481 465.306L423.796 462.097L420.115 452.562Z" fill="#CF6F64"/>
<path d="M452.738 454.747H444L445.657 465.172H454.394L452.738 454.747Z" fill="#CF6F64"/>
<path opacity="0.2" d="M392.223 239.525C392.39 241.623 392.593 243.768 392.842 245.973L427.578 234.697C433.002 233.075 437.723 229.666 440.942 225.006C441.073 221.907 441.251 218.653 441.513 215.255C441.633 213.599 441.776 211.905 441.931 210.19C442.098 208.402 442.288 206.577 442.503 204.742L392.223 239.525Z" fill="black"/>
<path d="M403.564 201.478L402.381 201.338C403.07 195.549 407.391 190.974 411.955 191.083L411.921 192.276C407.98 192.161 404.183 196.287 403.564 201.478Z" fill="white"/>
<path d="M409.745 212.19C409.68 212.19 409.615 212.188 409.548 212.187L409.583 210.995C413.573 211.141 417.32 206.982 417.94 201.791L419.123 201.933C418.443 207.639 414.259 212.19 409.745 212.19Z" fill="white"/>
<path d="M431.425 152.536C429.797 158.926 427.861 170.633 432.081 174.896C432.081 174.896 429.134 181.376 417.261 181.376C406.412 181.376 412.223 174.896 412.223 174.896C419.448 173.194 419.574 167.908 418.624 162.943L431.425 152.536Z" fill="#E58A7B"/>
<path d="M426.206 156.783L418.63 162.939C418.859 164.114 419.021 165.306 419.036 166.463C421.251 168.669 425.696 163.082 426.152 160.232C426.378 158.812 426.399 157.446 426.206 156.783Z" fill="#CF6F64"/>
<path d="M405.61 152.458C406.72 154.446 408.68 155.684 410.531 156.095C413.316 156.716 414.716 154.154 413.948 151.575C413.257 149.254 410.975 146.134 408.176 146.669C405.419 147.197 404.34 150.184 405.61 152.458Z" fill="#CF6F64"/>
<path d="M410.206 132.008C405.868 133.996 404.339 151.23 409.793 153.779C415.247 156.326 418.424 128.244 410.206 132.008Z" fill="#263238"/>
<path d="M432.748 142.921C431.71 151.573 431.54 156.664 426.91 161.104C419.945 167.784 409.499 163.822 407.941 155.186C406.538 147.413 408.472 134.57 417.143 131.128C425.685 127.736 433.787 134.27 432.748 142.921Z" fill="#E58A7B"/>
<path d="M418.498 136.491C424.915 134.85 429.638 133.732 427.953 139.089C425.707 146.225 423.014 153.139 426.627 153.461C428.824 153.657 438.569 149.522 437.332 145.341C436.254 141.699 440.784 140.716 441.619 138.859C444.627 132.17 436.032 133.039 437.561 128.992C439.051 125.051 430.637 118.392 425.975 121.646C418.429 126.913 405.461 126.838 412.279 118.198C417.162 112.011 408.45 113.281 408.45 113.281C408.45 113.281 413.712 116.403 404.855 121.228C395.466 126.341 404.06 140.185 418.498 136.491Z" fill="#263238"/>
<path d="M436.097 152.458C434.753 154.446 432.65 155.684 430.75 156.095C427.892 156.716 426.793 154.154 427.863 151.575C428.826 149.254 431.474 146.134 434.21 146.669C436.905 147.197 437.633 150.184 436.097 152.458Z" fill="#E58A7B"/>
<path d="M393.705 252.81C393.705 252.81 385.865 322.987 385.252 349.621C384.617 377.324 411.826 463.758 411.826 463.758L425.758 457.907C425.758 457.907 409.536 378.942 411.79 351.734C414.246 322.074 424.412 252.809 424.412 252.809H393.705V252.81Z" fill="#407BFF"/>
<path opacity="0.2" d="M413.191 272.079C406.944 285.048 411.153 310.689 414.538 325.888C415.825 315.159 417.351 303.514 418.805 292.738C418.663 276.168 417.375 263.378 413.191 272.079Z" fill="black"/>
<path d="M425.128 453.358C425.193 453.331 426.78 457.799 426.78 457.799L410.721 464.542L408.191 459.838L425.128 453.358Z" fill="#407BFF"/>
<path d="M410.276 252.81C410.276 252.81 416.274 319.554 420.249 344.559C424.603 371.941 441.704 463.153 441.704 463.153H457.7C457.7 463.153 448.115 374.152 446.304 347.042C444.339 317.617 440.417 252.81 440.417 252.81H410.276Z" fill="#407BFF"/>
<path d="M457.945 458.985C458.013 458.985 458.48 463.456 458.48 463.456H440.897L439.642 458.324L457.945 458.985Z" fill="#407BFF"/>
<path opacity="0.2" d="M451.817 453.702C451.741 453.702 451.677 453.645 451.669 453.569C451.582 452.76 442.939 372.408 441.313 348.05C439.548 321.617 436 263.008 435.964 262.419C435.959 262.336 436.022 262.266 436.103 262.261C436.107 262.261 436.11 262.261 436.112 262.261C436.19 262.261 436.257 262.322 436.262 262.401C436.297 262.989 439.845 321.598 441.611 348.029C443.236 372.382 451.878 452.728 451.965 453.537C451.974 453.619 451.915 453.692 451.834 453.7C451.827 453.702 451.821 453.702 451.817 453.702Z" fill="black"/>
<path d="M419.484 145.34C419.442 146.044 419.036 146.616 418.576 146.616C418.115 146.616 417.775 146.045 417.817 145.34C417.858 144.636 418.265 144.064 418.725 144.064C419.186 144.064 419.526 144.636 419.484 145.34Z" fill="#263238"/>
<path d="M411.522 145.34C411.48 146.044 411.074 146.616 410.613 146.616C410.153 146.616 409.813 146.045 409.855 145.34C409.896 144.636 410.302 144.064 410.763 144.064C411.223 144.064 411.563 144.636 411.522 145.34Z" fill="#263238"/>
<path d="M414.032 145.69C414.032 145.69 412.192 149.755 410.313 151.715C411.491 152.879 413.641 152.346 413.641 152.346L414.032 145.69Z" fill="#DF5753"/>
<path d="M414.235 155.302C414.121 155.302 414.033 155.209 414.04 155.095C414.047 154.982 414.145 154.889 414.259 154.889C417.352 154.889 418.921 152.729 418.937 152.707C419.007 152.612 419.137 152.584 419.227 152.647C419.319 152.709 419.339 152.837 419.27 152.933C419.201 153.028 417.549 155.302 414.235 155.302Z" fill="#263238"/>
<path d="M420.9 143.197C420.781 143.244 420.646 143.237 420.535 143.166C419.013 142.208 417.594 142.851 417.58 142.859C417.385 142.958 417.127 142.871 417.04 142.665C416.953 142.458 417.055 142.211 417.266 142.113C417.341 142.077 419.117 141.271 421.006 142.46C421.195 142.579 421.241 142.833 421.111 143.028C421.058 143.107 420.983 143.165 420.9 143.197Z" fill="#263238"/>
<path d="M408.443 140.883C408.386 140.867 408.33 140.838 408.285 140.794C408.123 140.643 408.123 140.382 408.285 140.21C409.904 138.499 411.781 138.76 411.86 138.772C412.081 138.796 412.228 139.016 412.18 139.242C412.133 139.467 411.915 139.622 411.692 139.59C411.629 139.58 410.164 139.394 408.871 140.759C408.756 140.882 408.588 140.925 408.443 140.883Z" fill="#263238"/>
<path d="M452.087 188.288L440.019 185.076C440.019 185.076 428.187 214.201 424.008 216.102C418.32 218.69 403.92 227.641 397.8 231.957C397.46 233.4 397.727 237.247 398.497 238.294C408.903 236.403 428.924 228.707 433.099 224.794C442.618 215.875 452.087 188.288 452.087 188.288Z" fill="#E58A7B"/>
<path d="M443.666 475.481C443.002 475.481 442.387 475.367 442.011 475.036C441.713 474.773 441.591 474.404 441.648 473.942C441.69 473.598 441.881 473.434 442.037 473.358C443.021 472.864 445.746 474.592 446.054 474.791C446.121 474.837 446.153 474.919 446.136 475.001C446.117 475.083 446.053 475.149 445.97 475.167C445.354 475.313 444.474 475.481 443.666 475.481ZM442.475 473.673C442.367 473.673 442.276 473.689 442.204 473.725C442.147 473.754 442.078 473.808 442.06 473.968C442.019 474.297 442.096 474.543 442.296 474.72C442.75 475.122 443.887 475.175 445.388 474.876C444.434 474.305 443.144 473.673 442.475 473.673Z" fill="#407BFF"/>
<path d="M445.921 475.173C445.888 475.173 445.854 475.165 445.824 475.149C444.948 474.657 443.314 472.744 443.556 471.77C443.599 471.593 443.748 471.288 444.246 471.228C444.572 471.187 444.861 471.278 445.112 471.492C446.078 472.322 446.138 474.843 446.141 474.949C446.143 475.025 446.102 475.098 446.036 475.138C446 475.162 445.961 475.173 445.921 475.173ZM444.367 471.633C444.337 471.633 444.306 471.636 444.273 471.64C444.003 471.672 443.971 471.796 443.959 471.849C443.815 472.424 444.844 473.87 445.702 474.553C445.643 473.816 445.451 472.346 444.832 471.815C444.69 471.692 444.538 471.633 444.367 471.633Z" fill="#407BFF"/>
<path d="M412.864 474.038C412.01 474.244 411.196 474.305 410.676 474.024C410.345 473.845 410.155 473.546 410.111 473.138C410.084 472.895 410.167 472.683 410.346 472.524C411.281 471.692 415.065 472.586 415.495 472.691C415.578 472.712 415.637 472.784 415.641 472.872C415.644 472.96 415.593 473.042 415.511 473.08C414.809 473.398 413.811 473.808 412.864 474.038ZM410.977 472.659C410.819 472.698 410.693 472.752 410.611 472.825C410.538 472.89 410.511 472.965 410.523 473.071C410.553 473.347 410.674 473.54 410.889 473.658C411.505 473.993 412.936 473.728 414.777 472.958C413.483 472.686 411.792 472.461 410.977 472.659Z" fill="#407BFF"/>
<path d="M415.473 473.092C415.444 473.099 415.415 473.099 415.386 473.096C414.261 472.887 411.86 471.553 411.838 470.554C411.832 470.321 411.943 470.001 412.492 469.81C412.891 469.661 413.302 469.691 413.687 469.88C414.948 470.502 415.607 472.729 415.635 472.823C415.655 472.893 415.636 472.969 415.585 473.026C415.554 473.06 415.514 473.082 415.473 473.092ZM412.729 470.162C412.69 470.171 412.649 470.185 412.607 470.198C412.248 470.324 412.251 470.472 412.251 470.52C412.265 471.119 413.932 472.221 415.109 472.592C414.875 471.952 414.311 470.66 413.485 470.252C413.237 470.129 412.988 470.099 412.729 470.162Z" fill="#407BFF"/>
<path d="M398.783 231.272L386.686 236.84L385.282 240.252L389.753 243.26C389.753 243.26 398.096 242.352 400.473 236.991L398.783 231.272Z" fill="#E58A7B"/>
<path d="M399.298 238.491C398.541 233.998 397.063 231.948 397.049 231.928L398.956 230.498C399.031 230.596 400.783 232.963 401.649 238.096L399.298 238.491Z" fill="#263238"/>
<path d="M401.358 232.918C401.75 233.888 401.12 235.058 399.949 235.531C398.779 236.004 397.513 235.601 397.121 234.63C396.729 233.659 397.359 232.49 398.53 232.016C399.699 231.544 400.966 231.947 401.358 232.918Z" fill="#263238"/>
<path d="M378.513 241.336L380.119 242.963L390.973 238.321L386.686 236.841L378.513 241.336Z" fill="#E58A7B"/>
<path opacity="0.2" d="M425.128 453.358C425.193 453.331 426.78 457.799 426.78 457.799L410.721 464.542L408.191 459.838L425.128 453.358Z" fill="black"/>
<path opacity="0.2" d="M457.945 458.985C458.013 458.985 458.48 463.456 458.48 463.456H440.897L439.642 458.324L457.945 458.985Z" fill="black"/>
<path d="M455.232 184.949C458.423 195.235 445.998 209.286 445.998 209.286L428.774 202.256C428.774 202.256 431.201 194.784 435.819 184.772C441.069 173.393 452.01 174.568 455.232 184.949Z" fill="#407BFF"/>
<path opacity="0.2" d="M455.232 184.949C458.423 195.235 445.998 209.286 445.998 209.286L428.774 202.256C428.774 202.256 431.201 194.784 435.819 184.772C441.069 173.393 452.01 174.568 455.232 184.949Z" fill="black"/>
<path d="M284.054 81.8612H276.645V83.0537H284.054V81.8612Z" fill="#407BFF"/>
<path d="M380.019 129.143L379.123 149.048L380.313 149.101L381.209 129.197L380.019 129.143Z" fill="#407BFF"/>
<path d="M377.711 87.2251H240.832L228.09 372.259H364.969L377.711 87.2251Z" fill="#407BFF"/>
<path opacity="0.56" d="M373.624 91.1366H236.746L224.004 376.171H360.883L373.624 91.1366Z" fill="#FAFAFA"/>
<path opacity="0.07" d="M369.538 95.0481H232.66L219.917 380.082H356.796L369.538 95.0481Z" fill="#407BFF"/>
<path d="M353.958 219.363H237.126L236.151 241.178H352.983L353.958 219.363Z" fill="white"/>
<path d="M301.385 203.452H237.837L237.401 213.213H300.948L301.385 203.452Z" fill="#407BFF"/>
<path d="M351.327 278.225H234.494L233.518 300.04H350.351L351.327 278.225Z" fill="white"/>
<path opacity="0.47" d="M329.902 329.482H251.336L250.168 355.627H328.732L329.902 329.482Z" fill="#407BFF"/>
<path d="M324.647 359.677H246.082C246.045 359.677 246.009 359.66 245.983 359.634C245.957 359.607 245.943 359.57 245.946 359.533L247.115 333.388C247.117 333.313 247.179 333.255 247.252 333.255H325.816C325.853 333.255 325.889 333.271 325.916 333.298C325.941 333.325 325.955 333.362 325.953 333.399L324.784 359.544C324.781 359.619 324.72 359.677 324.647 359.677ZM246.226 359.4H324.515L325.67 333.531H247.382L246.226 359.4Z" fill="white"/>
<path d="M287.654 262.315H235.205L234.769 272.076H287.217L287.654 262.315Z" fill="#407BFF"/>
<path d="M328.403 148.92C328.111 155.452 325.743 161.484 321.948 166.383C316.216 173.81 307.239 178.638 297.357 178.638C287.475 178.638 278.941 173.81 273.874 166.383C270.517 161.484 268.689 155.453 268.981 148.92C269.715 132.506 283.612 119.203 300.014 119.203C316.428 119.202 329.136 132.506 328.403 148.92Z" fill="white"/>
<path d="M331.197 125.423C331.12 127.158 330.491 128.761 329.482 130.063C327.959 132.036 325.574 133.319 322.948 133.319C320.321 133.319 318.055 132.036 316.708 130.063C315.816 128.761 315.33 127.158 315.408 125.423C315.602 121.061 319.296 117.527 323.654 117.527C328.016 117.527 331.392 121.061 331.197 125.423Z" fill="#407BFF"/>
<path d="M249.707 230.27C249.622 232.201 247.986 233.766 246.056 233.766C244.126 233.766 242.63 232.201 242.716 230.27C242.802 228.34 244.438 226.775 246.368 226.775C248.299 226.774 249.794 228.34 249.707 230.27Z" fill="#263238"/>
<path d="M265.352 230.27C265.267 232.201 263.631 233.766 261.701 233.766C259.77 233.766 258.275 232.201 258.361 230.27C258.447 228.34 260.082 226.775 262.013 226.775C263.943 226.775 265.439 228.34 265.352 230.27Z" fill="#263238"/>
<path d="M280.999 230.27C280.913 232.201 279.277 233.766 277.347 233.766C275.417 233.766 273.921 232.201 274.007 230.27C274.093 228.34 275.729 226.775 277.659 226.775C279.589 226.774 281.084 228.34 280.999 230.27Z" fill="#263238"/>
<path d="M247.076 289.132C246.991 291.063 245.355 292.627 243.425 292.627C241.495 292.627 239.999 291.063 240.085 289.132C240.171 287.202 241.807 285.636 243.737 285.636C245.667 285.637 247.162 287.202 247.076 289.132Z" fill="#263238"/>
<path d="M262.722 289.132C262.636 291.063 261 292.627 259.07 292.627C257.14 292.627 255.644 291.063 255.73 289.132C255.816 287.202 257.452 285.636 259.382 285.636C261.313 285.637 262.807 287.202 262.722 289.132Z" fill="#263238"/>
<path d="M278.366 289.132C278.281 291.063 276.645 292.627 274.715 292.627C272.784 292.627 271.289 291.063 271.375 289.132C271.461 287.202 273.097 285.636 275.027 285.636C276.957 285.636 278.453 287.202 278.366 289.132Z" fill="#263238"/>
<path d="M294.013 289.132C293.927 291.063 292.291 292.627 290.361 292.627C288.431 292.627 286.935 291.063 287.021 289.132C287.107 287.202 288.743 285.636 290.673 285.636C292.603 285.637 294.098 287.202 294.013 289.132Z" fill="#263238"/>
<path d="M309.657 289.132C309.572 291.063 307.936 292.627 306.006 292.627C304.076 292.627 302.58 291.063 302.666 289.132C302.752 287.202 304.388 285.636 306.318 285.636C308.248 285.637 309.743 287.202 309.657 289.132Z" fill="#263238"/>
<path d="M311.154 138.987C310.857 145.624 305.236 151.005 298.597 151.005C291.959 151.005 286.818 145.624 287.115 138.987C287.412 132.348 293.033 126.968 299.672 126.968C306.31 126.968 311.451 132.349 311.154 138.987Z" fill="#407BFF"/>
<path d="M321.948 166.382C316.216 173.809 307.239 178.637 297.357 178.637C287.475 178.637 278.941 173.809 273.874 166.382C279.513 160.768 288.438 157.121 298.32 157.121C308.212 157.121 316.811 160.768 321.948 166.382Z" fill="#407BFF"/>
<path opacity="0.1" d="M311.154 138.987C310.857 145.624 305.236 151.005 298.597 151.005C291.959 151.005 286.818 145.624 287.115 138.987C287.412 132.348 293.033 126.968 299.672 126.968C306.31 126.968 311.451 132.349 311.154 138.987Z" fill="white"/>
<path opacity="0.1" d="M321.948 166.382C316.216 173.809 307.239 178.637 297.357 178.637C287.475 178.637 278.941 173.809 273.874 166.382C279.513 160.768 288.438 157.121 298.32 157.121C308.212 157.121 316.811 160.768 321.948 166.382Z" fill="white"/>
<path d="M151.272 246.434C150.174 248.843 149.017 251.494 148.002 254.079C146.979 256.689 145.958 259.302 145.068 261.951C143.34 267.25 141.719 272.598 140.921 277.96L140.657 279.668C140.636 279.873 140.651 280.166 140.742 280.532C140.911 281.269 141.37 282.255 142.016 283.222C143.323 285.179 145.174 287.16 147.17 289C149.162 290.869 151.325 292.656 153.573 294.353C155.8 296.066 158.147 297.742 160.444 299.312L158.282 303.383C152.763 300.97 147.623 298.085 142.644 294.465C140.196 292.6 137.779 290.592 135.638 287.877C134.582 286.508 133.544 284.962 132.864 282.921C132.535 281.902 132.305 280.75 132.304 279.504C132.312 279.218 132.327 278.815 132.347 278.623L132.403 278.046L132.519 276.893C133.151 270.744 134.512 264.834 136.307 259.101C137.212 256.238 138.177 253.404 139.279 250.624C140.404 247.825 141.514 245.138 142.921 242.321L151.272 246.434Z" fill="#E58A7B"/>
<path d="M158.82 298.621L167.017 294.463L164.9 303.471C164.9 303.471 159.271 305.043 156.653 302.312L158.82 298.621Z" fill="#E58A7B"/>
<path d="M174.523 295.942L172.342 303.389L164.899 303.472L167.017 294.463L174.523 295.942Z" fill="#E58A7B"/>
<path d="M186.101 203.001C186.101 203.001 186.812 205.616 187.94 207.587C186.971 208.491 186.101 208.177 186.101 208.177V203.001Z" fill="#DF5753"/>
<path d="M185.859 203.07C186.338 203.07 186.727 202.474 186.727 201.74C186.727 201.006 186.338 200.411 185.859 200.411C185.379 200.411 184.99 201.006 184.99 201.74C184.99 202.474 185.379 203.07 185.859 203.07Z" fill="#263238"/>
<path d="M185.646 200.451L187.409 199.943C187.409 199.943 186.505 201.321 185.646 200.451Z" fill="#263238"/>
<path d="M163.44 211.51C164.5 216.91 165.556 226.804 161.777 230.407C161.777 230.407 163.254 235.885 173.288 235.885C184.322 235.885 178.561 230.407 178.561 230.407C172.539 228.969 172.695 224.502 173.744 220.306L163.44 211.51Z" fill="#E58A7B"/>
<path d="M160.513 199.221C161.066 208.236 161.108 212.063 165.662 216.69C172.51 223.65 183.462 220.999 185.614 212C187.55 203.9 186.319 190.518 177.495 186.931C168.8 183.396 159.958 190.205 160.513 199.221Z" fill="#E58A7B"/>
<path d="M161.401 189.02C156.881 190.668 150.85 189.442 153.216 203.396C155.722 218.17 151.865 223.031 151.865 223.031C151.865 223.031 169.023 226.686 186.539 222.813C186.539 222.813 181.192 213.461 182.693 206.637C184.607 197.933 183.09 194.716 183.09 194.716C183.09 194.716 167.758 186.702 161.401 189.02Z" fill="#263238"/>
<path d="M180.542 203.919C180.524 205.705 181.15 207.504 181.962 208.754C183.184 210.634 184.634 209.868 184.997 207.916C185.324 206.16 185.081 203.065 183.517 201.864C181.976 200.683 180.564 201.877 180.542 203.919Z" fill="#E58A7B"/>
<path d="M157.475 190.598C156.17 186.95 162.369 181.339 175.474 183.673C188.58 186.007 189.155 196.907 189.155 196.907L186.504 193.759L186.623 197.074L173.154 199.662L157.475 190.598Z" fill="#263238"/>
<path d="M158.586 231.021C158.405 229.906 159.154 228.856 160.268 228.673C164.349 227.999 173.624 226.635 178.293 227.281C181.761 227.761 182.679 229.787 182.825 231.443C182.934 232.672 181.918 233.708 180.686 233.652L160.515 232.74C159.546 232.696 158.74 231.979 158.586 231.021Z" fill="#407BFF"/>
<path opacity="0.6" d="M158.586 231.021C158.405 229.906 159.154 228.856 160.268 228.673C164.349 227.999 173.624 226.635 178.293 227.281C181.761 227.761 182.679 229.787 182.825 231.443C182.934 232.672 181.918 233.708 180.686 233.652L160.515 232.74C159.546 232.696 158.74 231.979 158.586 231.021Z" fill="black"/>
<path d="M170.241 433.68L177.718 438.87L190.236 421.904L182.76 416.714L170.241 433.68Z" fill="#E58A7B"/>
<path d="M152.789 433.337L160.698 437.841L171.777 419.897L163.87 415.394L152.789 433.337Z" fill="#E58A7B"/>
<path d="M190.231 421.907L183.78 430.654L176.301 425.461L182.752 416.715L190.231 421.907Z" fill="#CF6F64"/>
<path d="M163.865 415.397L171.776 419.903L166.061 429.15L158.15 424.645L163.865 415.397Z" fill="#CF6F64"/>
<path d="M176.55 287.666C176.55 287.666 205.758 324.479 200.279 359.681C195.852 388.115 170.219 426.617 170.219 426.617L158.167 420.626C158.167 420.626 171.262 395.039 179.861 367.915C183.468 356.54 181.931 344.008 175.189 334.162C160.393 312.552 136.688 325.41 152.634 287.667L176.55 287.666Z" fill="#407BFF"/>
<path opacity="0.6" d="M176.55 287.666C176.55 287.666 205.758 324.479 200.279 359.681C195.852 388.115 170.219 426.617 170.219 426.617L158.167 420.626C158.167 420.626 171.262 395.039 179.861 367.915C183.468 356.54 181.931 344.008 175.189 334.162C160.393 312.552 136.688 325.41 152.634 287.667L176.55 287.666Z" fill="black"/>
<path opacity="0.4" d="M190.877 311.321L186.633 307.101C186.633 307.435 194.859 358.203 197.171 372.471C198.565 368.097 199.638 363.782 200.282 359.681C202.964 342.445 197.325 324.815 190.877 311.321Z" fill="black"/>
<path d="M189.595 287.666C189.595 287.666 224.765 333.927 225.755 361.668C226.584 384.912 187.446 429.812 187.446 429.812L176.083 422.462C176.083 422.462 198.969 390.542 204.731 364.449C202.534 338.621 155.382 287.665 155.382 287.665H189.595V287.666Z" fill="#407BFF"/>
<path opacity="0.6" d="M189.595 287.666C189.595 287.666 224.765 333.927 225.755 361.668C226.584 384.912 187.446 429.812 187.446 429.812L176.083 422.462C176.083 422.462 198.969 390.542 204.731 364.449C202.534 338.621 155.382 287.665 155.382 287.665H189.595V287.666Z" fill="black"/>
<path d="M146.082 232.476C142.316 233.364 138.716 247.037 138.716 247.037L153.405 256.843C153.405 256.843 158.3 246.036 156.592 241.302C154.811 236.372 150.838 231.354 146.082 232.476Z" fill="#407BFF"/>
<path opacity="0.2" d="M148.957 241.273L147.93 253.185L153.398 256.845C153.398 256.845 155.961 251.183 156.724 246.248L148.957 241.273Z" fill="black"/>
<path d="M193.944 232.739C193.944 232.739 198.279 234.265 189.595 287.666C174.928 287.666 159.77 287.666 152.634 287.666C153.254 272.623 153.272 263.347 146.082 232.476C146.082 232.476 153.826 230.791 161.777 230.407C167.997 230.108 173.093 229.909 178.561 230.408C185.769 231.066 193.944 232.739 193.944 232.739Z" fill="#407BFF"/>
<path d="M197.698 241.219C198.535 243.533 199.421 246.036 200.344 248.44C201.229 250.879 202.147 253.314 203.095 255.738L205.939 263.024L206.659 264.845L207.019 265.756L207.2 266.211C207.232 266.292 207.226 266.285 207.214 266.277C207.164 266.255 207.121 266.025 206.402 265.553C206.05 265.334 205.458 265.123 204.887 265.111C204.313 265.09 203.858 265.231 203.597 265.344C203.074 265.594 203.066 265.701 203.078 265.684C203.111 265.667 203.219 265.563 203.338 265.421C203.844 264.812 204.457 263.762 204.994 262.718C205.543 261.654 206.061 260.517 206.577 259.364C207.604 257.053 208.538 254.64 209.488 252.223C210.427 249.8 211.313 247.341 212.189 244.875L214.83 237.472L219.299 238.598C218.415 243.893 217.271 249.08 215.908 254.285C215.243 256.892 214.472 259.478 213.592 262.088C213.153 263.395 212.663 264.699 212.099 266.029C211.513 267.368 210.932 268.69 209.895 270.224C209.622 270.613 209.314 271.024 208.883 271.476C208.429 271.921 207.903 272.46 206.77 272.969C206.206 273.211 205.422 273.426 204.517 273.39C203.616 273.364 202.702 273.044 202.07 272.652C200.784 271.831 200.34 271.049 199.96 270.462C199.783 270.167 199.632 269.864 199.528 269.644L199.308 269.194L198.867 268.294L197.99 266.493C196.844 264.079 195.721 261.652 194.657 259.199C193.604 256.739 192.577 254.266 191.582 251.775C190.63 249.245 189.688 246.793 188.849 244.102L197.698 241.219Z" fill="#E58A7B"/>
<path d="M193.944 232.739C198.387 233.797 203.378 246.923 203.378 246.923L190.175 258.174C190.175 258.174 181.618 243.861 183.349 239.135C185.152 234.213 188.14 231.356 193.944 232.739Z" fill="#407BFF"/>
<path d="M216.892 233.379L221.526 229.504L224.75 234.525L222.375 238.719C222.375 238.719 218.594 242.18 215.246 240.419C214.165 237.968 214.837 235.098 216.892 233.379Z" fill="#E58A7B"/>
<path d="M229.937 229.515L229.591 230.779L222.249 232.012L221.525 229.504L229.937 229.515Z" fill="#E58A7B"/>
<path d="M188.386 430.421L175.14 421.854L177.512 417.729L192.399 426.88L188.386 430.421Z" fill="#407BFF"/>
<path d="M165.86 437.234C164.807 437.234 163.421 436.566 162.581 436.1C162.505 436.058 162.463 435.976 162.472 435.889C162.48 435.804 162.539 435.732 162.62 435.704C162.978 435.592 166.12 434.629 167.01 435.376C167.15 435.494 167.307 435.712 167.257 436.075C167.192 436.557 166.971 436.897 166.603 437.08C166.389 437.187 166.136 437.234 165.86 437.234ZM163.251 435.969C164.692 436.702 165.852 436.972 166.41 436.695C166.648 436.576 166.785 436.355 166.831 436.017C166.855 435.835 166.792 435.755 166.733 435.706C166.265 435.313 164.523 435.619 163.251 435.969Z" fill="#263238"/>
<path d="M162.686 436.125C162.628 436.125 162.573 436.102 162.532 436.06C162.479 436.005 162.459 435.926 162.48 435.851C162.51 435.745 163.234 433.225 164.425 432.651C164.743 432.499 165.066 432.491 165.381 432.622C165.882 432.833 165.932 433.2 165.915 433.398C165.834 434.441 163.707 435.882 162.737 436.118C162.721 436.123 162.704 436.125 162.686 436.125ZM164.935 432.962C164.828 432.962 164.72 432.989 164.611 433.041C163.901 433.383 163.305 434.742 163.019 435.57C164.04 435.14 165.433 434.001 165.483 433.366C165.491 433.262 165.468 433.128 165.212 433.021C165.12 432.982 165.027 432.962 164.935 432.962Z" fill="#263238"/>
<path d="M182.431 442.247C181.125 442.247 179.303 440.568 178.307 439.537C178.243 439.471 178.228 439.372 178.269 439.29C178.31 439.208 178.415 439.162 178.489 439.172C178.948 439.232 182.983 439.777 183.552 440.916C183.661 441.136 183.652 441.371 183.526 441.595C183.312 441.97 183.003 442.186 182.607 442.236C182.55 442.243 182.491 442.247 182.431 442.247ZM179.07 439.692C180.536 441.117 181.817 441.905 182.554 441.807C182.811 441.774 183.006 441.636 183.151 441.381C183.207 441.284 183.211 441.198 183.166 441.109C182.856 440.489 180.702 439.954 179.07 439.692Z" fill="#263238"/>
<path d="M179.198 439.656C178.9 439.656 178.633 439.638 178.423 439.598C178.349 439.584 178.286 439.532 178.259 439.461C178.234 439.389 178.247 439.308 178.295 439.249C178.362 439.169 179.931 437.277 181.413 437.147C181.877 437.111 182.271 437.234 182.607 437.522C183.063 437.913 183.032 438.261 182.925 438.484C182.557 439.256 180.553 439.656 179.198 439.656ZM178.899 439.221C180.194 439.293 182.266 438.863 182.536 438.298C182.56 438.25 182.628 438.107 182.328 437.85C182.077 437.636 181.787 437.546 181.452 437.576C180.479 437.662 179.392 438.695 178.899 439.221Z" fill="#263238"/>
<path d="M163.004 434.905L153.165 432.123C152.807 432.022 152.446 432.188 152.297 432.523L148.976 439.99C148.632 440.765 149.11 441.726 149.94 441.945C153.387 442.856 155.097 443.121 159.423 444.345C162.086 445.098 165.896 446.474 169.572 447.512C173.167 448.528 174.471 444.971 173.034 444.209C166.588 440.793 166.079 438.451 164.316 435.856C163.998 435.389 163.529 435.053 163.004 434.905Z" fill="#407BFF"/>
<path d="M178.575 438.182L170.177 432.351C169.87 432.138 169.476 432.179 169.225 432.447L163.655 438.428C163.077 439.048 163.218 440.112 163.931 440.589C166.894 442.571 168.425 443.379 172.118 445.943C174.391 447.521 178.926 451.02 182.064 453.198C185.134 455.329 187.523 452.39 186.412 451.202C181.429 445.875 180.329 442.536 179.506 439.508C179.357 438.963 179.022 438.492 178.575 438.182Z" fill="#407BFF"/>
<path d="M171.767 427.386L156.621 419.859L158.189 415.76L174.355 423.684L171.767 427.386Z" fill="#407BFF"/>
<path d="M152.081 285.497L150.799 288.805C150.669 289.062 150.973 289.324 151.401 289.324H189.777C190.11 289.324 190.386 289.16 190.407 288.951L190.74 285.643C190.763 285.413 190.474 285.22 190.11 285.22H152.681C152.408 285.22 152.164 285.332 152.081 285.497Z" fill="#407BFF"/>
<path opacity="0.4" d="M152.081 285.497L150.799 288.805C150.669 289.062 150.973 289.324 151.401 289.324H189.777C190.11 289.324 190.386 289.16 190.407 288.951L190.74 285.643C190.763 285.413 190.474 285.22 190.11 285.22H152.681C152.408 285.22 152.164 285.332 152.081 285.497Z" fill="white"/>
<path d="M158.116 289.682H157.114C156.914 289.682 156.762 289.579 156.776 289.454L157.246 285.156C157.26 285.031 157.434 284.927 157.635 284.927H158.637C158.836 284.927 158.988 285.031 158.974 285.156L158.505 289.454C158.491 289.58 158.316 289.682 158.116 289.682Z" fill="#407BFF"/>
<path d="M181.788 289.682H180.786C180.586 289.682 180.434 289.579 180.448 289.454L180.918 285.156C180.932 285.031 181.106 284.927 181.307 284.927H182.309C182.509 284.927 182.661 285.031 182.647 285.156L182.177 289.454C182.163 289.58 181.988 289.682 181.788 289.682Z" fill="#407BFF"/>
<path d="M157.233 486.141C174.397 486.141 188.311 485.131 188.311 483.886C188.311 482.64 174.397 481.631 157.233 481.631C140.07 481.631 126.156 482.64 126.156 483.886C126.156 485.131 140.07 486.141 157.233 486.141Z" fill="#F5F5F5"/>
<path d="M176.173 480.704C170.674 479.108 164.622 477.051 160.878 474.865C160.774 474.804 160.663 474.76 160.558 474.704V449.847H171.617C173.447 449.847 174.929 448.364 174.929 446.535C174.929 444.707 173.447 443.224 171.617 443.224H160.558V329.75H153.935V443.224H142.876C141.048 443.224 139.565 444.707 139.565 446.535C139.565 448.364 141.048 449.847 142.876 449.847H153.935V474.703C153.83 474.759 153.72 474.802 153.615 474.863C149.871 477.05 143.819 479.107 138.321 480.703C136.517 481.226 136.897 483.884 138.775 483.884H157.246H175.717C177.596 483.885 177.976 481.227 176.173 480.704Z" fill="#E0E0E0"/>
<path d="M177.874 342.487H136.619C133.314 342.487 130.61 339.783 130.61 336.478V324.213C130.61 320.908 133.314 318.204 136.619 318.204H177.874C181.179 318.204 183.883 320.908 183.883 324.213V336.478C183.883 339.783 181.179 342.487 177.874 342.487Z" fill="#407BFF"/>
<path d="M136.24 342.487V344.598C136.24 346.338 138.134 347.762 140.448 347.762H174.045C176.359 347.762 178.254 346.339 178.254 344.598V342.487H136.24Z" fill="#407BFF"/>
<path opacity="0.3" d="M136.24 342.487V344.598C136.24 346.338 138.134 347.762 140.448 347.762H174.045C176.359 347.762 178.254 346.339 178.254 344.598V342.487H136.24Z" fill="white"/>
</svg>
