<svg width="517" height="568" viewBox="0 0 517 568" fill="none" xmlns="http://www.w3.org/2000/svg">
<path d="M257.723 567.062C400.06 567.062 515.446 560.883 515.446 553.261C515.446 545.638 400.06 539.459 257.723 539.459C115.387 539.459 0 545.638 0 553.261C0 560.883 115.387 567.062 257.723 567.062Z" fill="#CED3E6"/>
<path d="M241.655 168.921L267.687 252.732L258.399 243.317C261.833 244.93 265.819 246.168 270.214 247.029C274.609 247.907 279.413 248.408 284.431 248.627C289.449 248.862 294.68 248.815 300.036 248.627C305.392 248.424 310.855 248.079 316.406 247.656H316.442C324.627 247.045 331.834 252.387 332.527 259.593C333.186 266.47 327.652 272.549 320.054 273.645C314.325 274.444 308.506 275.212 302.545 275.823C296.567 276.434 290.446 276.888 284.111 277.013C277.776 277.139 271.211 276.919 264.413 276.058C257.634 275.196 250.606 273.63 243.737 271.029C239.342 269.353 236.21 266.189 234.787 262.476L234.449 261.598L203.221 179.182C199.716 169.923 205.392 159.897 215.926 156.811C226.442 153.725 237.83 158.722 241.335 167.996C241.442 168.278 241.566 168.623 241.655 168.921Z" fill="#EA9B7A"/>
<path d="M251.673 472.74C251.281 472.74 250.89 472.677 250.498 472.552L114.128 429.268C112.349 428.704 111.423 426.965 112.064 425.398C112.705 423.832 114.68 423.001 116.459 423.581L252.829 466.865C254.609 467.429 255.552 469.168 254.894 470.734C254.413 471.972 253.079 472.74 251.673 472.74Z" fill="#C77E2E"/>
<path d="M109.627 472.74C108.221 472.74 106.904 471.972 106.388 470.734C105.748 469.168 106.673 467.429 108.452 466.849L246.442 422.845C248.221 422.281 250.196 423.095 250.855 424.662C251.495 426.228 250.57 427.967 248.791 428.547L110.801 472.552C110.41 472.677 110.018 472.74 109.627 472.74Z" fill="#C77E2E"/>
<path d="M263.808 550.096C260.908 550.096 258.381 548.201 257.972 545.6L233.345 383.665H130.267L106.014 545.6C105.587 548.436 102.633 550.441 99.4127 550.065C96.1921 549.689 93.9145 547.089 94.3415 544.253L119.27 377.837C119.662 375.252 122.153 373.326 125.107 373.326H238.506C241.459 373.326 243.95 375.252 244.342 377.822L269.662 544.237C270.089 547.073 267.83 549.689 264.609 550.065C264.324 550.081 264.075 550.096 263.808 550.096Z" fill="#FAAF3A"/>
<path d="M205.659 378.495H132.011C108.683 378.495 83.7011 367.247 80.1067 346.96C75.3202 319.812 74.1281 293.541 75.4626 269.415C76.9751 242.142 91.7794 216.763 116.121 199.844C116.121 199.844 130.836 256.288 112.331 334.193C119.413 363.769 205.659 378.495 205.659 378.495Z" fill="#FAAF3A"/>
<path d="M190.303 47.4651C190.303 47.4651 181.548 28.8857 158.363 32.3948C142.171 34.8386 135.267 52.6034 136.21 80.0496C137.598 119.981 122.26 144.044 122.26 144.044L142.616 148.117C142.633 148.101 194.466 79.6423 190.303 47.4651Z" fill="#39393B"/>
<path d="M376.032 480.713H343.132C343.132 480.713 335.516 448.567 332.972 430.552C330.41 412.521 329.093 369.801 329.093 369.801C329.093 369.801 302.883 377.304 248.007 374.469C126.423 368.218 172.527 289.577 172.527 289.577C176.637 294.574 201.797 291.112 219.004 293.493C271.797 297.958 317.563 316.193 345.036 326.626C351.655 329.133 357.527 331.796 362.687 334.6C369.306 338.187 373.452 349.106 375.961 363.44C383.452 406.536 376.032 480.713 376.032 480.713Z" fill="#39393B"/>
<path d="M347.225 465.22C346.673 465.22 346.193 464.875 346.068 464.39C341.317 443.711 339.734 417.972 338.452 397.294C337.385 380.14 336.388 363.942 333.879 361.999C331.851 360.417 323.435 361.655 312.794 363.205C291.602 366.307 259.573 370.976 224.271 363.754C205.036 359.806 190.89 351.582 182.242 339.3C167.313 318.12 174.128 291.849 174.199 291.582C174.342 291.018 174.982 290.674 175.623 290.815C176.263 290.94 176.655 291.504 176.495 292.068C176.423 292.319 169.858 317.775 184.27 338.219C192.58 350.015 206.228 357.926 224.822 361.733C259.68 368.876 291.424 364.239 312.438 361.169C325.018 359.336 332.616 358.224 335.481 360.448C338.577 362.861 339.449 374.704 340.837 397.184C342.118 417.8 343.702 443.445 348.417 463.982C348.541 464.546 348.132 465.095 347.492 465.204C347.367 465.22 347.296 465.22 347.225 465.22Z" fill="#585859"/>
<path d="M376.655 465.768H376.637L340.054 465.079C339.395 465.063 338.879 464.593 338.897 464.014C338.915 463.434 339.449 462.98 340.107 462.995L376.691 463.685C377.349 463.7 377.865 464.17 377.847 464.75C377.829 465.314 377.296 465.768 376.655 465.768Z" fill="#585859"/>
<path d="M375.125 517.809H351.904L347.438 493.841L344.982 480.713H373.826L374.289 493.841L375.125 517.809Z" fill="#EA9B7A"/>
<path d="M375.125 517.81H351.904L348.577 499.966L347.438 493.841H374.289L374.52 500.186L375.125 517.81Z" fill="#FAAF3A"/>
<path d="M374.52 500.186L348.577 499.966L347.438 493.841H374.289L374.52 500.186Z" fill="#C77E2E"/>
<path d="M432.42 550.096H344.609C343.95 549.047 343.595 547.574 343.452 545.804C342.901 539.256 345.267 528.822 346.424 522.243C346.566 521.475 346.691 520.754 346.78 520.112C346.94 519.016 347.047 518.091 347.047 517.418C347.047 512.044 352.438 512.969 352.438 512.969C361.317 520.645 371.388 509.131 377.26 512.906C377.26 512.906 377.491 513.063 378.043 513.423C378.541 513.768 379.289 514.3 380.321 515.068C381.815 516.164 383.915 517.762 386.762 520.018C393.737 525.548 405.588 529.183 415.677 532.895C416.958 533.365 418.15 533.851 419.271 534.321C420.107 534.681 420.908 535.042 421.655 535.386C429.912 539.303 432.527 543.062 433.132 545.788C433.719 548.42 432.42 550.096 432.42 550.096Z" fill="#0875F7"/>
<path d="M421.673 535.402C419.413 536.984 414.378 540.164 410.338 540.164C410.16 540.164 409.983 540.164 409.805 540.148C406.958 539.945 396.495 535.417 387.972 531.297C383.096 528.932 378.63 526.613 375.427 524.749C370.178 521.694 369.253 520.535 369.057 519.72C368.292 516.666 374.022 514.551 378.043 513.439C378.541 513.783 379.289 514.316 380.321 515.083C375.338 516.274 371.228 518.154 371.424 519.235C371.922 520.143 377.118 523.621 389.538 529.621C399.022 534.196 408.007 537.877 410 538.034C412.705 538.222 416.673 536.06 419.271 534.352C420.125 534.697 420.926 535.057 421.673 535.402Z" fill="#084FC7"/>
<path d="M432.42 550.096H344.609C343.95 549.046 343.594 547.574 343.452 545.804H433.15C433.719 548.42 432.42 550.096 432.42 550.096Z" fill="#084FC7"/>
<path d="M353.559 550.096H350.943C353.541 547.48 355.979 543.454 355.658 537.72C355.231 530.075 350.036 524.937 346.406 522.243C346.548 521.475 346.673 520.754 346.762 520.112C350.658 522.728 357.224 528.478 357.74 537.626C358.078 543.109 356.032 547.198 353.559 550.096Z" fill="#084FC7"/>
<path d="M385.285 524.593C384.644 524.593 384.039 524.201 383.879 523.621C383.683 522.932 384.164 522.243 384.929 522.07L390.41 520.864C391.192 520.692 391.975 521.115 392.171 521.788C392.367 522.478 391.886 523.167 391.121 523.339L385.641 524.546C385.516 524.577 385.392 524.593 385.285 524.593Z" fill="white"/>
<path d="M379.84 520.582C379.2 520.582 378.595 520.191 378.434 519.611C378.239 518.922 378.719 518.232 379.484 518.06L384.965 516.854C385.748 516.682 386.531 517.105 386.726 517.778C386.922 518.467 386.442 519.157 385.676 519.313L380.196 520.52C380.071 520.567 379.947 520.582 379.84 520.582Z" fill="white"/>
<path d="M390.765 527.397C390.125 527.397 389.52 527.005 389.36 526.426C389.164 525.736 389.644 525.047 390.409 524.89L395.89 523.684C396.673 523.512 397.456 523.935 397.651 524.608C397.847 525.298 397.367 525.987 396.602 526.159L391.121 527.365C390.997 527.397 390.89 527.397 390.765 527.397Z" fill="white"/>
<path d="M396.246 530.107C395.587 530.107 395 529.715 394.84 529.136C394.644 528.446 395.125 527.757 395.89 527.585L401.37 526.378C402.153 526.206 402.936 526.629 403.132 527.303C403.328 527.992 402.847 528.681 402.082 528.838L396.602 530.044C396.495 530.091 396.37 530.107 396.246 530.107Z" fill="white"/>
<path d="M402.242 532.598C401.602 532.598 400.997 532.206 400.837 531.626C400.641 530.937 401.121 530.248 401.887 530.091L407.367 528.885C408.15 528.713 408.933 529.136 409.129 529.809C409.324 530.498 408.844 531.188 408.079 531.36L402.598 532.566C402.474 532.582 402.349 532.598 402.242 532.598Z" fill="white"/>
<path d="M408.719 534.728C408.079 534.728 407.474 534.337 407.314 533.757C407.118 533.068 407.598 532.378 408.364 532.206L413.844 531C414.627 530.828 415.41 531.25 415.606 531.924C415.801 532.613 415.321 533.303 414.556 533.459L409.075 534.666C408.951 534.713 408.844 534.728 408.719 534.728Z" fill="white"/>
<path d="M111.637 264.637C111.637 264.637 110.605 270.888 120.107 272.642L219.182 275.556C219.182 275.556 225.872 272.595 224.662 265.295C224.662 265.28 182.829 244.585 111.637 264.637Z" fill="#084FC7"/>
<path d="M220.534 293.478C169.11 318.386 112.954 298.334 112.954 298.334C115.694 291.739 117.74 284.298 119.217 277.53C120.925 269.65 121.886 262.695 122.331 259.045C144.199 257.995 197.829 255.974 218.844 260.361L219.004 267.77L220.534 293.478Z" fill="#EA9B7A"/>
<path d="M182.544 281.541C182.171 283.875 180.961 285.661 179.875 285.52C178.772 285.379 178.203 283.374 178.576 281.039C178.95 278.705 180.16 276.919 181.245 277.06C182.349 277.201 182.918 279.207 182.544 281.541Z" fill="#D96C63"/>
<path d="M218.986 267.771C197.082 266.596 154.004 266.188 119.199 277.515C120.907 269.635 121.868 262.679 122.313 259.029C144.181 257.98 197.812 255.959 218.826 260.345L218.986 267.771Z" fill="#D96C63"/>
<path d="M243.417 231.943C243.203 232.507 242.954 233.024 242.669 233.51C242.563 233.698 242.456 233.886 242.349 234.058C239.591 238.554 235.338 242.455 231.762 245.228C231.015 245.807 230.303 246.324 229.644 246.794C228.328 247.734 227.207 248.47 226.442 248.956C225.73 249.395 225.321 249.63 225.321 249.63C225.321 249.677 225.321 249.708 225.303 249.771C225.267 250.1 225.232 250.46 225.196 250.836C225.071 252.262 224.965 253.953 224.894 255.896C224.822 257.447 224.769 259.154 224.733 261.003C224.716 262.366 224.68 263.791 224.662 265.264C195.605 253.828 135.747 261.05 111.637 264.622C112.082 262.789 112.473 260.987 112.847 259.233C114.555 251.134 115.516 243.849 115.89 237.317C116.459 227.604 115.498 213.004 113.149 197.918C113.007 196.931 112.847 195.959 112.687 194.988C112.58 194.346 112.473 193.719 112.349 193.077C111.53 188.346 110.569 183.599 109.484 178.993C104.733 158.91 108.06 137.84 131.192 135.349C132.865 135.161 134.52 135.004 136.139 134.848C147.029 133.829 155.997 133.469 158.488 133.391C158.95 133.375 159.182 133.375 159.182 133.375L203.879 144.811L208.132 145.892C210.57 146.581 212.829 147.255 214.929 147.913C215.819 148.195 216.691 148.477 217.509 148.743C219.68 149.464 221.637 150.153 223.434 150.858C227.011 152.252 229.84 153.615 232.082 155.009C241.886 161.135 240.374 168.059 240.125 181.735C240.125 181.798 240.125 181.86 240.125 181.923C240.125 182.095 240.125 182.268 240.125 182.456C240.125 182.534 240.125 182.612 240.125 182.691C240.125 183.254 240.125 183.803 240.125 184.367C240.143 186.137 240.214 187.892 240.338 189.646C240.499 192.231 240.765 194.8 241.086 197.307C241.21 198.309 241.335 199.312 241.477 200.314C241.602 201.254 241.744 202.179 241.886 203.103C243.63 215.071 245.854 225.567 243.417 231.943Z" fill="#0875F7"/>
<path d="M240.107 181.923C240.107 182.095 240.107 182.268 240.107 182.456C240.107 182.534 240.107 182.612 240.107 182.69C240.107 183.254 240.107 183.803 240.107 184.367L230.712 189.552C230.427 189.709 230.107 189.756 229.787 189.709C229.431 189.662 229.111 189.474 228.897 189.192C228.506 188.643 228.701 187.938 229.306 187.594L239.271 182.095C239.52 181.954 239.822 181.907 240.107 181.923Z" fill="#084FC7"/>
<path d="M178.185 226.225C177.829 226.225 177.473 226.1 177.206 225.849C176.726 225.379 176.762 224.643 177.295 224.22L186.032 217.296C186.566 216.873 187.402 216.904 187.883 217.374C188.363 217.844 188.327 218.58 187.794 219.003L179.057 225.928C178.808 226.116 178.488 226.225 178.185 226.225Z" fill="#084FC7"/>
<path d="M241.851 203.103L235.872 207.849C235.623 208.053 235.303 208.147 235 208.147C234.644 208.147 234.288 208.022 234.021 207.771C233.541 207.301 233.577 206.565 234.11 206.142L241.441 200.33C241.566 201.254 241.708 202.179 241.851 203.103Z" fill="#084FC7"/>
<path d="M160.463 198.372C160.267 198.105 160.178 197.776 160.267 197.447C160.427 196.821 161.139 196.445 161.851 196.586L173.292 198.967C174.004 199.108 174.431 199.735 174.271 200.361C174.11 200.988 173.399 201.364 172.687 201.223L161.246 198.842C160.908 198.779 160.641 198.607 160.463 198.372Z" fill="#084FC7"/>
<path d="M119.626 218.142C119.27 218.142 118.914 218.017 118.647 217.766C118.167 217.296 118.203 216.56 118.736 216.137L127.473 209.212C128.007 208.79 128.843 208.821 129.324 209.291C129.804 209.761 129.768 210.497 129.235 210.92L120.498 217.844C120.249 218.048 119.946 218.142 119.626 218.142Z" fill="#084FC7"/>
<path d="M221.335 216.497C221.442 216.199 221.708 215.933 222.047 215.808C222.705 215.557 223.488 215.823 223.773 216.403L228.47 225.896C228.755 226.476 228.452 227.165 227.794 227.416C227.136 227.666 226.353 227.4 226.068 226.821L221.37 217.327C221.246 217.045 221.246 216.748 221.335 216.497Z" fill="#084FC7"/>
<path d="M243.417 231.943C243.203 232.507 242.954 233.024 242.669 233.51C242.563 233.698 242.456 233.886 242.349 234.058L235.961 232.288C235.641 232.194 235.392 232.006 235.232 231.771C235.054 231.505 234.983 231.16 235.107 230.847C235.321 230.236 236.068 229.907 236.744 230.095L243.417 231.943Z" fill="#084FC7"/>
<path d="M207.331 232.773C207.687 232.742 208.06 232.836 208.345 233.071C208.879 233.494 208.914 234.23 208.434 234.7L200.534 242.361C200.053 242.831 199.217 242.862 198.683 242.439C198.149 242.016 198.114 241.28 198.594 240.81L206.495 233.149C206.726 232.93 207.028 232.805 207.331 232.773Z" fill="#084FC7"/>
<path d="M202.687 215.103C202.331 215.056 202.011 214.868 201.797 214.586C201.406 214.053 201.601 213.332 202.206 212.988L212.171 207.489C212.776 207.144 213.594 207.317 213.986 207.849C214.377 208.382 214.182 209.103 213.577 209.447L203.612 214.946C203.327 215.103 202.989 215.15 202.687 215.103Z" fill="#084FC7"/>
<path d="M209.039 181.766C209.271 182.001 209.413 182.315 209.36 182.659C209.288 183.286 208.63 183.756 207.918 183.678L196.228 182.55C195.516 182.487 194.982 181.907 195.071 181.281C195.142 180.654 195.801 180.184 196.513 180.262L208.203 181.39C208.523 181.422 208.826 181.563 209.039 181.766Z" fill="#084FC7"/>
<path d="M192.046 159.443C192.135 159.129 192.367 158.863 192.705 158.706C193.345 158.409 194.146 158.613 194.484 159.176L200.054 168.294C200.392 168.858 200.16 169.563 199.52 169.86C198.879 170.158 198.078 169.954 197.74 169.39L192.171 160.273C191.993 160.007 191.957 159.709 192.046 159.443Z" fill="#084FC7"/>
<path d="M231.78 245.243C231.032 245.823 230.321 246.34 229.662 246.81L228.132 243.363C228.007 243.082 228.007 242.8 228.132 242.533C228.257 242.236 228.523 241.985 228.879 241.86C229.555 241.625 230.321 241.922 230.588 242.518L231.78 245.243Z" fill="#084FC7"/>
<path d="M124.306 227.698C124.128 227.416 124.092 227.087 124.235 226.758C124.484 226.163 125.231 225.849 125.907 226.069L136.975 229.578C137.651 229.797 138.007 230.455 137.758 231.05C137.509 231.646 136.762 231.959 136.085 231.74L125.018 228.231C124.697 228.152 124.448 227.949 124.306 227.698Z" fill="#084FC7"/>
<path d="M129.715 240.873C130.071 240.873 130.427 241.014 130.694 241.264C131.175 241.734 131.121 242.47 130.587 242.893L121.779 249.755C121.246 250.178 120.409 250.131 119.929 249.661C119.449 249.191 119.502 248.455 120.036 248.032L128.844 241.17C129.093 240.967 129.413 240.873 129.715 240.873Z" fill="#084FC7"/>
<path d="M145.676 251.76C145.89 252.011 146.014 252.34 145.943 252.669C145.819 253.295 145.142 253.718 144.431 253.609L132.847 251.87C132.135 251.76 131.655 251.165 131.779 250.538C131.904 249.912 132.58 249.489 133.292 249.598L144.876 251.337C145.196 251.384 145.481 251.541 145.676 251.76Z" fill="#084FC7"/>
<path d="M155.374 154.853C155.285 154.555 155.32 154.21 155.534 153.928C155.925 153.396 156.744 153.239 157.349 153.584L167.224 159.192C167.829 159.537 168.007 160.257 167.616 160.79C167.224 161.323 166.406 161.479 165.801 161.135L155.925 155.526C155.64 155.354 155.445 155.119 155.374 154.853Z" fill="#084FC7"/>
<path d="M222.776 161.464C223.096 161.307 223.47 161.276 223.843 161.385C224.52 161.605 224.876 162.263 224.644 162.858L220.712 172.617C220.463 173.213 219.715 173.526 219.039 173.322C218.363 173.103 218.007 172.445 218.239 171.85L222.171 162.09C222.278 161.824 222.509 161.605 222.776 161.464Z" fill="#084FC7"/>
<path d="M217.491 148.759L211.424 155.62C210.979 156.122 210.16 156.216 209.591 155.824C209.022 155.432 208.915 154.712 209.36 154.211L214.911 147.944C215.801 148.195 216.673 148.477 217.491 148.759Z" fill="#084FC7"/>
<path d="M158.114 243.426C158.239 243.755 158.559 243.99 158.915 244.053C159.093 244.084 159.288 244.084 159.466 244.021C159.662 243.959 178.683 238.538 198.684 245.839C208.844 249.551 217.883 250.961 225.196 250.836C225.232 250.46 225.267 250.115 225.303 249.771C225.303 249.724 225.321 249.677 225.321 249.645C225.321 249.645 225.73 249.41 226.442 248.972C219.253 249.285 210.054 247.938 199.502 244.1C178.737 236.518 159.591 242.001 158.79 242.235C158.239 242.408 157.936 242.94 158.114 243.426Z" fill="#084FC7"/>
<path d="M203.861 144.811C201.352 148.226 196.192 152.096 185.729 151.438C171.299 150.513 161.797 138.388 158.487 133.407C158.932 133.391 159.181 133.391 159.181 133.391L203.861 144.811Z" fill="#084FC7"/>
<path d="M188.523 167.307C188.95 167.385 189.377 167.432 189.804 167.464C193.79 167.746 197.029 166.727 199.413 164.44C206.353 157.767 203.506 142.54 203.381 141.897C203.274 141.38 202.723 141.036 202.153 141.13C201.566 141.224 201.175 141.709 201.281 142.211C201.317 142.367 204.075 157.171 197.847 163.171C195.908 165.035 193.328 165.834 190 165.599C176.014 164.612 160.338 133.328 160.178 133.015C159.947 132.545 159.306 132.326 158.772 132.529C158.239 132.733 157.989 133.297 158.221 133.767C158.826 135.067 173.701 164.659 188.523 167.307Z" fill="white"/>
<path d="M232.082 155.009C231.157 164.033 233.683 178.931 240.303 189.646C240.142 187.343 240.071 185.009 240.107 182.691C240.107 182.612 240.107 182.534 240.107 182.456C240.107 182.221 240.125 181.986 240.125 181.751C240.356 168.075 241.868 161.135 232.082 155.009Z" fill="#EA9B7A"/>
<path d="M149.857 170.894C144.733 188.314 125.978 202.288 113.167 197.933C113.007 196.962 112.864 195.975 112.704 195.004C112.598 194.361 112.491 193.735 112.366 193.092C111.548 188.361 110.587 183.615 109.501 179.009C104.751 158.926 108.096 137.856 131.21 135.365C132.882 135.177 134.537 135.02 136.156 134.863C147.704 139.203 155.765 150.842 149.857 170.894Z" fill="#EA9B7A"/>
<path d="M152.491 157.61L182.527 254.329L171.815 243.457C175.783 245.306 180.374 246.747 185.463 247.75C190.534 248.752 196.085 249.332 201.868 249.598C207.669 249.865 213.701 249.818 219.876 249.598C226.05 249.379 232.367 248.972 238.772 248.486H238.808C248.256 247.781 256.566 253.938 257.367 262.256C258.132 270.183 251.744 277.217 242.954 278.47C236.353 279.394 229.627 280.272 222.74 280.977C215.854 281.682 208.79 282.199 201.459 282.355C194.146 282.496 186.566 282.261 178.737 281.259C170.925 280.256 162.811 278.47 154.875 275.447C149.804 273.52 146.192 269.854 144.555 265.577L144.181 264.575L108.132 169.453C104.075 158.769 110.64 147.208 122.776 143.636C134.911 140.064 148.043 145.845 152.1 156.529C152.26 156.874 152.384 157.281 152.491 157.61Z" fill="#EA9B7A"/>
<path d="M165.943 251.243C165.64 251.243 165.338 251.102 165.178 250.852C164.929 250.476 165.089 250.006 165.516 249.786C165.8 249.645 172.366 246.387 179.235 245.917C179.733 245.886 180.16 246.199 180.196 246.638C180.231 247.076 179.875 247.452 179.377 247.484C172.918 247.922 166.459 251.118 166.405 251.149C166.245 251.212 166.085 251.243 165.943 251.243Z" fill="#D96C63"/>
<path d="M176.868 247.75C176.708 247.75 176.548 247.718 176.406 247.64C172.26 245.431 167.242 245.087 167.189 245.087C166.69 245.055 166.335 244.679 166.37 244.256C166.406 243.818 166.815 243.504 167.313 243.536C167.527 243.551 172.811 243.896 177.313 246.308C177.74 246.528 177.865 247.013 177.616 247.389C177.456 247.609 177.153 247.75 176.868 247.75Z" fill="#D96C63"/>
<path d="M203.648 196.774C216.94 199.14 222.758 187.046 222.812 186.92C223.043 186.435 222.776 185.886 222.224 185.698C221.673 185.495 221.05 185.73 220.836 186.215C220.623 186.67 215.605 196.993 204.075 194.941C191.957 192.779 169.359 171.803 169.146 171.584C168.737 171.208 168.061 171.192 167.633 171.552C167.206 171.913 167.189 172.508 167.598 172.884C168.523 173.746 190.89 194.487 203.648 196.774Z" fill="#084FC7"/>
<path d="M182.758 120.592C182.758 120.592 161.424 117.052 155.409 98.0963C149.68 80.0495 154.093 70.6815 160.054 60.9375C164.538 53.5903 178.772 43.674 198.719 47.2301C218.861 50.8175 233.933 59.9349 236.157 74.5195C240.303 101.809 215.303 135.098 182.758 120.592Z" fill="#39393B"/>
<path d="M156.406 101.026C156.014 101.026 155.64 100.853 155.445 100.524C155.053 99.929 146.085 85.7203 153.541 67.0156C158.203 55.329 167.367 50.1124 174.253 47.7782C181.69 45.2561 187.936 45.5067 188.203 45.5067C188.808 45.538 189.288 45.9923 189.253 46.5406C189.217 47.0733 188.719 47.4962 188.096 47.4649C188.043 47.4649 181.975 47.2456 174.964 49.6267C165.641 52.8069 159.146 58.8695 155.64 67.6579C148.541 85.4854 157.295 99.4121 157.384 99.5531C157.687 100.023 157.509 100.618 156.975 100.885C156.779 100.979 156.601 101.026 156.406 101.026Z" fill="#FAAF3A"/>
<path d="M224.129 101.324C224.129 101.324 231.068 96.4985 232.901 102.89C234.734 109.282 229.573 120.639 221.495 117.193L224.129 101.324Z" fill="#D96C63"/>
<path d="M217.349 113.073C213.897 114.075 210.855 116.77 210.072 120.107C208.933 125.088 212.598 129.945 218.239 130.963C223.897 131.965 229.413 128.738 230.57 123.772C231.424 120.044 229.591 116.378 226.228 114.357C225.107 113.668 223.808 113.182 222.385 112.932C222.349 112.932 222.314 112.916 222.278 112.916C222.082 113.543 222.154 114.044 222.563 114.436C223.702 114.702 224.734 115.156 225.641 115.751C228.257 117.506 229.662 120.467 228.969 123.49C228.008 127.689 223.328 130.414 218.559 129.569C213.791 128.723 210.694 124.603 211.655 120.404C212.367 117.349 214.929 115.188 218.15 114.498L217.349 113.073Z" fill="#FAAF3A"/>
<path d="M203.096 128.723L200.196 144.733C200.196 144.733 186.584 156.968 161.726 135.02C168.399 130.65 170.943 120.498 170.16 113.95C170.16 113.95 172.118 114.984 175.142 117.396C175.73 117.866 176.495 118.227 177.224 118.681C183.79 122.597 193.861 127.72 203.096 128.723Z" fill="#EA9B7A"/>
<path d="M203.096 128.723L201.726 136.305C194.271 133.375 181.086 127.125 175.143 117.381C175.783 117.788 176.495 118.211 177.224 118.665C183.79 122.597 193.862 127.72 203.096 128.723Z" fill="#39393B"/>
<path d="M230.854 97.4698C230.463 99.1617 230.107 100.775 229.733 102.311C229.342 103.971 228.968 105.538 228.595 107.01C225.837 118.086 223.577 124.023 219.911 126.248C201.353 137.48 171.157 114.733 170.178 113.997C170.16 113.981 170.16 113.981 170.16 113.981C170.143 112.681 170.143 111.381 170.16 110.112C170.392 99.334 172.473 89.6527 175.783 80.7076C177.438 70.9323 186.05 63.0995 197.135 61.6269C208.63 60.1073 217.278 65.9663 222.687 68.5511C230.854 72.4675 234.057 83.3551 230.854 97.4698Z" fill="#EA9B7A"/>
<path d="M176.423 70.6502C176.423 70.6502 189.413 48.6557 215.32 54.7966C241.228 60.9375 242.598 71.5275 243.061 76.8225C243.523 82.1174 229.644 72.7337 229.644 72.7337C229.644 72.7337 229.164 83.3237 224.537 80.0653C218.861 76.0549 212.527 67.4231 212.527 67.4231C212.527 67.4231 197.1 80.7702 182.438 77.1671C174.092 75.1306 176.423 70.6502 176.423 70.6502Z" fill="#39393B"/>
<path d="M208.239 119.041C204.876 119.041 202.562 116.989 202.456 116.88C202.1 116.551 202.1 116.034 202.473 115.72C202.847 115.407 203.416 115.407 203.772 115.736C203.897 115.846 206.566 118.18 210.089 117.114C210.57 116.973 211.103 117.193 211.263 117.616C211.424 118.039 211.175 118.509 210.694 118.65C209.84 118.932 209.021 119.041 208.239 119.041Z" fill="#D96C63"/>
<path d="M200.498 105.726C200.498 105.726 212.989 108.984 219.466 108.984C219.466 108.984 216.228 117.13 206.975 114.279C199.769 112.055 200.498 105.726 200.498 105.726Z" fill="white"/>
<path d="M223.683 82.8225C223.683 82.8225 220.445 82.5248 220.961 85.2976C221.495 88.0705 228.523 86.3786 232.011 91.9242C232.011 91.9242 235.374 86.1122 223.683 82.8225Z" fill="#39393B"/>
<path d="M209.253 80.2532C209.253 80.2532 212.367 81.0991 210.659 83.4646C208.951 85.8301 203.221 81.8667 197.563 85.7831C197.563 85.7831 197.047 79.2819 209.253 80.2532Z" fill="#39393B"/>
<path d="M203.63 100.102C203.328 101.402 200.036 101.919 196.246 101.245C192.474 100.572 189.662 98.9736 189.965 97.6577C190.267 96.3575 193.559 95.8405 197.349 96.5141C201.121 97.1878 203.933 98.8013 203.63 100.102Z" fill="#D96C63"/>
<path d="M240.498 100.963L230.409 99.4437C230.356 99.8196 230.249 100.196 230.16 100.556C230.142 100.619 230.124 100.681 230.089 100.744L240.249 102.263C240.658 102.326 241.05 102.075 241.121 101.715C241.192 101.371 240.925 101.026 240.498 100.963Z" fill="white"/>
<path d="M213.559 93.3809C213.559 92.9266 213.541 92.4723 213.47 92.0337C213.132 89.6212 211.922 87.3967 210.071 85.6734C208.363 84.0912 206.139 82.932 203.559 82.4307C203.523 82.415 203.47 82.415 203.434 82.3993C197.527 81.3341 191.708 84.0599 189.306 88.6969C189.092 89.1042 188.914 89.5115 188.754 89.9345C188.612 90.3104 188.505 90.7021 188.398 91.0937C187.722 94.0075 188.381 96.89 190.035 99.2399C190.605 100.039 191.281 100.775 192.046 101.417C193.719 102.843 195.836 103.877 198.274 104.316C202.384 105.067 206.423 103.971 209.324 101.684C211.281 100.148 212.722 98.0493 213.292 95.6211C213.292 95.6054 213.292 95.6054 213.292 95.5898C213.47 94.8535 213.559 94.1172 213.559 93.3809ZM198.594 103.015C198.523 103 198.47 103 198.416 102.984C195.231 102.357 192.651 100.571 191.139 98.2373C189.84 96.2164 189.324 93.8039 189.893 91.36C190.018 90.8587 190.178 90.3731 190.374 89.9032C190.391 89.8718 190.409 89.8405 190.409 89.8092C191.993 86.1904 195.854 83.7309 200.196 83.5116C201.157 83.4646 202.135 83.5116 203.132 83.6996C205.267 84.0912 207.117 84.9841 208.594 86.2217C211.299 88.4932 212.651 91.9083 211.851 95.3548C210.569 100.681 204.644 104.128 198.594 103.015Z" fill="white"/>
<path d="M236.174 88.8067C235.836 88.65 235.48 88.509 235.107 88.368C234.68 88.2114 234.235 88.086 233.79 87.9607C233.47 87.8824 233.167 87.804 232.829 87.7571C232.224 87.6474 231.637 87.5847 231.05 87.5534C230.338 87.5064 229.626 87.5221 228.932 87.6004C226.993 87.7884 225.16 88.3524 223.541 89.2453C221.762 90.2166 220.249 91.5795 219.217 93.2244C218.932 93.6473 218.701 94.086 218.488 94.5246C218.47 94.5559 218.47 94.5716 218.452 94.6029C218.185 95.1982 217.972 95.8249 217.811 96.4672C216.797 100.791 218.772 105.052 222.491 107.59C223.701 108.42 225.089 109.062 226.619 109.454C226.851 109.517 227.082 109.579 227.331 109.611C227.456 109.642 227.562 109.658 227.687 109.689C228.915 109.908 230.142 109.971 231.335 109.877C231.53 109.861 231.726 109.846 231.904 109.83C232.42 109.767 232.936 109.689 233.452 109.564C234.395 109.344 235.32 109.031 236.174 108.639C239.431 107.135 241.922 104.41 242.722 100.995C243.879 95.9815 241.05 91.0625 236.174 88.8067ZM241.228 100.713C241.174 100.932 241.121 101.136 241.05 101.339C240.961 101.637 240.854 101.919 240.73 102.216C239.84 104.3 238.203 105.992 236.139 107.104C235.392 107.511 234.573 107.84 233.719 108.091C233.185 108.248 232.651 108.357 232.082 108.436C231.922 108.467 231.762 108.483 231.601 108.498C230.427 108.624 229.199 108.592 227.972 108.373C227.865 108.357 227.74 108.326 227.633 108.31C227.562 108.295 227.491 108.279 227.438 108.263C225.641 107.856 224.039 107.073 222.74 106.023C222.545 105.867 222.367 105.71 222.189 105.553C219.715 103.297 218.505 100.023 219.27 96.7178C219.448 95.9815 219.715 95.2609 220.053 94.6029C221.174 92.4411 223.132 90.7649 225.498 89.7779C226.957 89.167 228.577 88.838 230.249 88.838C230.516 88.838 230.783 88.8537 231.068 88.8693C231.548 88.9007 232.029 88.9633 232.509 89.0416C232.865 89.1043 233.203 89.1826 233.541 89.2766C234.004 89.4019 234.448 89.5586 234.893 89.7309C235.231 89.8719 235.569 90.0286 235.908 90.1852C239.947 92.2688 242.224 96.4515 241.228 100.713Z" fill="white"/>
<path d="M173.221 90.7177C173.132 90.702 173.043 90.6707 172.971 90.6237C172.616 90.42 172.527 90.0127 172.74 89.7151C177.794 82.7596 189.947 89.0102 190.053 89.0728C190.409 89.2608 190.534 89.6681 190.32 89.9814C190.107 90.2947 189.644 90.4044 189.288 90.2164C189.181 90.1537 178.274 84.5611 174.004 90.4357C173.843 90.655 173.523 90.7647 173.221 90.7177Z" fill="white"/>
<path d="M219.022 94.9007C218.826 94.8693 218.666 94.7596 218.541 94.6187C216.922 92.4255 213.47 93.4124 213.435 93.4124C213.043 93.5221 212.616 93.3341 212.492 92.9894C212.367 92.6448 212.58 92.2688 212.972 92.1592C214.556 91.6892 218.025 91.4542 219.823 93.8981C220.054 94.2114 219.947 94.6186 219.591 94.8066C219.413 94.9006 219.218 94.932 219.022 94.9007Z" fill="white"/>
<g opacity="0.8">
<g opacity="0.8">
<g opacity="0.8">
<g opacity="0.8">
<g opacity="0.8">
<g opacity="0.8">
<g opacity="0.8">
<path opacity="0.8" d="M229.734 102.31C229.342 103.971 228.968 105.537 228.595 107.01C225.161 106.274 222.687 104.786 222.972 103.548C223.274 102.326 226.228 101.793 229.734 102.31Z" fill="#D96C63"/>
</g>
</g>
</g>
</g>
</g>
</g>
</g>
<path d="M206.281 93.5376C205.872 95.3391 204.609 96.6237 203.47 96.4201C202.331 96.2164 201.744 94.6028 202.153 92.8013C202.562 90.9997 203.826 89.7152 204.965 89.9188C206.103 90.1225 206.691 91.736 206.281 93.5376Z" fill="#39393B"/>
<path d="M226.459 97.1407C226.05 98.9423 224.787 100.227 223.648 100.023C222.509 99.8195 221.922 98.206 222.331 96.4044C222.741 94.6029 224.004 93.3183 225.143 93.522C226.282 93.7256 226.869 95.3392 226.459 97.1407Z" fill="#39393B"/>
<path d="M216.032 101.966C217.011 102.138 217.705 102.107 217.758 102.107C217.989 102.091 218.221 101.997 218.381 101.84C218.541 101.684 218.594 101.464 218.577 101.261L217.278 92.8795C217.206 92.4722 216.779 92.1745 216.317 92.2372C215.854 92.2998 215.516 92.6758 215.587 93.0831L216.744 100.556C215.89 100.446 214.609 100.133 213.452 99.2867C213.096 99.0204 212.545 99.0674 212.242 99.3807C211.94 99.694 211.993 100.18 212.349 100.446C213.612 101.355 214.982 101.778 216.032 101.966Z" fill="#39393B"/>
<path d="M178.506 107.887C178.363 108.075 174.413 113.073 170.196 113.981C170.178 113.966 170.178 113.966 170.178 113.966C170.143 112.665 170.16 111.365 170.178 110.096C170.321 110.112 174.342 110.206 178.506 107.887Z" fill="#39393B"/>
<path d="M177.634 94.7595C177.634 94.7595 171.691 83.6682 163.986 90.1694C157.634 95.5428 163.185 113.464 174.217 109.626L177.634 94.7595Z" fill="#EA9B7A"/>
<path d="M163.025 104.331C159.573 105.334 156.53 108.028 155.747 111.365C154.609 116.347 158.274 121.203 163.915 122.221C169.573 123.224 175.089 119.997 176.246 115.031C177.1 111.302 175.267 107.637 171.904 105.616C170.783 104.927 169.484 104.441 168.061 104.19C168.025 104.19 167.989 104.175 167.954 104.175C167.758 104.801 167.847 105.302 168.239 105.694C169.377 105.96 170.409 106.415 171.317 107.01C173.933 108.765 175.338 111.725 174.644 114.749C173.683 118.947 169.004 121.673 164.235 120.827C159.466 119.981 156.37 115.861 157.331 111.663C158.025 108.608 160.605 106.446 163.826 105.757L163.025 104.331Z" fill="#FAAF3A"/>
<path d="M173.754 106.54C173.79 106.54 173.808 106.556 173.843 106.556C174.306 106.587 174.733 106.29 174.769 105.867C175.641 97.4855 168.452 93.2401 168.149 93.0678C167.758 92.8328 167.224 92.9425 166.957 93.2871C166.69 93.6318 166.815 94.1017 167.206 94.3367C167.473 94.4934 173.843 98.2844 173.061 105.741C173.043 106.117 173.345 106.462 173.754 106.54Z" fill="#39393B"/>
<path d="M166.958 100.665C167.136 100.697 167.349 100.681 167.527 100.587C168.381 100.196 170.89 99.3182 172.26 99.8979C172.687 100.086 173.203 99.9292 173.399 99.5533C173.612 99.1773 173.434 98.723 173.007 98.5506C170.623 97.5324 167.136 99.0833 166.744 99.2556C166.317 99.4436 166.157 99.8979 166.388 100.274C166.495 100.478 166.726 100.619 166.958 100.665Z" fill="#39393B"/>
<path d="M185.285 75.9451C185.285 75.9451 177.296 95.0415 176.869 98.8953C176.281 104.143 168.399 86.1591 176.317 70.8068L185.285 75.9451Z" fill="#39393B"/>
<path d="M318.773 480.807H285.872C285.872 480.807 278.257 448.661 275.712 430.646C273.15 412.615 271.833 369.895 271.833 369.895C271.833 369.895 245.623 377.399 190.747 374.563C69.1635 368.313 115.267 289.671 115.267 289.671C119.377 294.668 150.196 301.546 167.384 303.943C220.178 308.407 260.303 316.303 287.776 326.736C294.395 329.242 300.267 331.906 305.427 334.71C312.047 338.297 316.193 349.216 318.702 363.55C326.193 406.646 318.773 480.807 318.773 480.807Z" fill="#39393B"/>
<path d="M289.947 465.33C289.395 465.33 288.915 464.985 288.79 464.5C284.039 443.821 282.456 418.082 281.175 397.404C280.107 380.25 279.111 364.052 276.602 362.109C274.573 360.527 266.157 361.764 255.516 363.315C234.324 366.417 202.295 371.086 166.993 363.864C147.758 359.916 133.612 351.691 124.964 339.41C110.035 318.23 116.85 291.958 116.921 291.692C117.064 291.128 117.704 290.784 118.345 290.925C118.986 291.05 119.377 291.614 119.217 292.178C119.146 292.428 112.58 317.885 126.993 338.329C135.302 350.125 148.95 358.036 167.544 361.843C202.402 368.986 234.146 364.349 255.16 361.279C267.74 359.446 275.338 358.334 278.203 360.558C281.299 362.971 282.171 374.814 283.559 397.294C284.84 417.91 286.424 443.555 291.139 464.092C291.264 464.656 290.854 465.204 290.214 465.314C290.107 465.314 290.036 465.33 289.947 465.33Z" fill="#585859"/>
<path d="M319.395 465.862H319.377L282.794 465.173C282.135 465.157 281.619 464.687 281.637 464.108C281.655 463.528 282.189 463.074 282.847 463.089L319.431 463.779C320.089 463.794 320.605 464.264 320.587 464.844C320.552 465.423 320.036 465.862 319.395 465.862Z" fill="#585859"/>
<path d="M317.866 517.919H294.645L290.179 493.935L287.723 480.807H316.567L317.029 493.935L317.866 517.919Z" fill="#EA9B7A"/>
<path d="M317.865 517.919H294.644L291.317 500.06L290.178 493.935H317.029L317.242 500.28L317.865 517.919Z" fill="#FAAF3A"/>
<path d="M317.242 500.28L291.317 500.06L290.178 493.935H317.029L317.242 500.28Z" fill="#C77E2E"/>
<path d="M375.161 550.206H287.331C286.673 549.156 286.317 547.684 286.175 545.914C285.623 539.365 287.99 528.932 289.146 522.353C289.289 521.585 289.413 520.864 289.502 520.222C289.662 519.125 289.769 518.201 289.769 517.528C289.769 512.154 295.161 513.079 295.161 513.079C304.04 520.755 314.111 509.256 319.983 513.016C319.983 513.016 320.214 513.172 320.766 513.533C321.264 513.877 322.011 514.41 323.043 515.178C324.538 516.274 326.638 517.872 329.485 520.128C336.46 525.658 348.31 529.292 358.399 533.005C359.68 533.475 360.873 533.945 361.994 534.431C362.83 534.791 363.631 535.151 364.378 535.496C372.634 539.412 375.25 543.172 375.855 545.898C376.442 548.514 375.161 550.206 375.161 550.206Z" fill="#0875F7"/>
<path d="M364.396 535.512C362.136 537.094 357.1 540.274 353.061 540.274C352.883 540.274 352.705 540.274 352.527 540.258C349.68 540.055 339.218 535.527 330.694 531.407C325.819 529.042 321.353 526.723 318.15 524.859C312.901 521.804 311.976 520.645 311.78 519.83C311.015 516.776 316.744 514.661 320.766 513.548C321.264 513.893 322.011 514.426 323.043 515.193C318.061 516.384 313.951 518.264 314.146 519.329C314.645 520.238 319.84 523.715 332.26 529.715C341.744 534.29 350.73 537.971 352.723 538.128C355.428 538.316 359.396 536.154 361.993 534.446C362.865 534.791 363.648 535.151 364.396 535.512Z" fill="#084FC7"/>
<path d="M375.161 550.206H287.331C286.673 549.156 286.317 547.684 286.175 545.914H375.873C376.442 548.514 375.161 550.206 375.161 550.206Z" fill="#084FC7"/>
<path d="M296.3 550.206H293.684C296.282 547.59 298.719 543.564 298.399 537.83C297.972 530.185 292.776 525.047 289.146 522.353C289.289 521.585 289.413 520.864 289.502 520.222C293.399 522.838 299.965 528.587 300.481 537.736C300.801 543.219 298.755 547.308 296.3 550.206Z" fill="#084FC7"/>
<path d="M328.026 524.702C327.385 524.702 326.78 524.311 326.62 523.731C326.424 523.042 326.905 522.353 327.67 522.18L333.15 520.974C333.933 520.802 334.716 521.225 334.912 521.898C335.107 522.588 334.627 523.277 333.862 523.449L328.381 524.655C328.257 524.687 328.132 524.702 328.026 524.702Z" fill="white"/>
<path d="M322.563 520.676C321.904 520.676 321.317 520.285 321.157 519.705C320.961 519.016 321.442 518.326 322.207 518.154L327.687 516.948C328.47 516.776 329.253 517.199 329.449 517.872C329.645 518.561 329.164 519.251 328.399 519.423L322.919 520.629C322.794 520.661 322.687 520.676 322.563 520.676Z" fill="white"/>
<path d="M333.506 527.507C332.866 527.507 332.261 527.115 332.1 526.535C331.905 525.846 332.385 525.157 333.15 525L338.631 523.794C339.414 523.622 340.196 524.044 340.392 524.718C340.588 525.407 340.108 526.097 339.342 526.269L333.862 527.475C333.737 527.491 333.613 527.507 333.506 527.507Z" fill="white"/>
<path d="M338.987 530.201C338.346 530.201 337.741 529.809 337.581 529.23C337.385 528.541 337.866 527.851 338.631 527.695L344.111 526.488C344.894 526.316 345.677 526.739 345.873 527.413C346.068 528.102 345.588 528.791 344.823 528.964L339.342 530.17C339.218 530.185 339.111 530.201 338.987 530.201Z" fill="white"/>
<path d="M344.965 532.692C344.325 532.692 343.72 532.3 343.559 531.721C343.364 531.031 343.844 530.342 344.609 530.185L350.09 528.979C350.873 528.807 351.656 529.23 351.851 529.903C352.047 530.593 351.567 531.282 350.801 531.454L345.321 532.661C345.196 532.692 345.09 532.692 344.965 532.692Z" fill="white"/>
<path d="M351.46 534.822C350.801 534.822 350.214 534.431 350.054 533.851C349.858 533.162 350.339 532.472 351.104 532.3L356.584 531.094C357.367 530.922 358.15 531.345 358.346 532.018C358.542 532.707 358.061 533.397 357.296 533.569L351.816 534.775C351.691 534.807 351.566 534.822 351.46 534.822Z" fill="white"/>
<path d="M439.948 288.512V294.935C439.948 298.632 437.421 301.624 434.289 301.624H40.2135C37.0819 301.624 34.5552 298.632 34.5552 294.935V288.512C34.5552 284.815 37.0819 281.823 40.2135 281.823H434.272C437.403 281.823 439.948 284.815 439.948 288.512Z" fill="#21B573"/>
<path d="M439.948 290.548H34.5552V293.493H439.948V290.548Z" fill="#217C58"/>
<path d="M428.097 318.12H57.6868C56.032 318.12 54.6797 316.929 54.6797 315.472V301.53H431.104V315.472C431.104 316.929 429.752 318.12 428.097 318.12Z" fill="#217C58"/>
<path d="M411.46 399.957H80.1958V411.33H411.46V399.957Z" fill="#217C58"/>
<path d="M56.3168 552.227L120.445 318.12H97.9183L33.79 552.227H56.3168Z" fill="#21B573"/>
<path d="M434.912 552.227L370.766 318.12H393.293L457.421 552.227H434.912Z" fill="#21B573"/>
<path d="M70.5194 228.02L63.5718 228.957L71.6025 275.119L78.5501 274.182L70.5194 228.02Z" fill="#FAAF3A"/>
<path d="M70.5333 227.996L63.5938 228.936L65.124 224.267L65.9069 221.839L67.4906 223.938L70.5333 227.996Z" fill="#EA9B7A"/>
<path d="M77.9599 270.822L71.0122 271.759L71.5968 275.119L78.5445 274.182L77.9599 270.822Z" fill="#39393B"/>
<path d="M78.5765 276.888L72.5444 277.703C72.2953 277.734 72.0462 277.577 72.0106 277.358L71.6191 275.087L78.5765 274.147L78.9679 276.418C79.0035 276.653 78.8256 276.857 78.5765 276.888Z" fill="#DF615C"/>
<path d="M67.4911 223.938L65.1245 224.267L65.9074 221.839L67.4911 223.938Z" fill="#39393B"/>
<path d="M77.5668 268.41L70.6191 269.346L71.0367 271.747L77.9844 270.81L77.5668 268.41Z" fill="#C77E2E"/>
<path d="M65.7118 230.972L71.6549 265.154C71.7083 265.421 71.9752 265.593 72.2599 265.546C72.5446 265.499 72.7581 265.264 72.7047 265.013L66.7616 230.831C66.7083 230.58 66.4414 230.392 66.1567 230.439C65.872 230.471 65.6584 230.721 65.7118 230.972Z" fill="#C77E2E"/>
<path d="M68.4345 230.612L74.3776 264.794C74.4309 265.045 74.6978 265.233 74.9825 265.186C75.285 265.139 75.4808 264.904 75.4274 264.653L69.4843 230.471C69.4309 230.22 69.164 230.032 68.8793 230.079C68.5946 230.11 68.3811 230.345 68.4345 230.612Z" fill="#C77E2E"/>
<path d="M83.1164 228.206L76.0879 228.227L76.2614 274.926L83.2899 274.906L83.1164 228.206Z" fill="#21B573"/>
<path d="M83.1139 228.215L76.0854 228.231L78.3808 223.813L79.573 221.51L80.783 223.797L83.1139 228.215Z" fill="#EA9B7A"/>
<path d="M83.2687 271.522L76.2402 271.543L76.2529 274.942L83.2814 274.922L83.2687 271.522Z" fill="#39393B"/>
<path d="M82.829 277.609L76.7258 277.624C76.4589 277.624 76.2632 277.436 76.2632 277.217V274.93L83.2917 274.914V277.201C83.2917 277.421 83.0959 277.609 82.829 277.609Z" fill="#DF615C"/>
<path d="M80.783 223.797L78.3809 223.813L79.573 221.51L80.783 223.797Z" fill="#39393B"/>
<path d="M83.2526 269.078L76.2241 269.099L76.2331 271.527L83.2616 271.507L83.2526 269.078Z" fill="#217C58"/>
<path d="M77.8291 230.533L77.9537 265.107C77.9537 265.374 78.2028 265.577 78.4875 265.577C78.79 265.577 79.0213 265.358 79.0213 265.107L78.8967 230.533C78.8967 230.267 78.6476 230.063 78.3629 230.063C78.0782 230.048 77.8291 230.267 77.8291 230.533Z" fill="#217C58"/>
<path d="M80.5874 230.518L80.712 265.092C80.712 265.358 80.9611 265.562 81.2458 265.562C81.5483 265.562 81.7796 265.342 81.7796 265.092L81.655 230.518C81.655 230.251 81.4059 230.048 81.1212 230.048C80.8365 230.048 80.5874 230.251 80.5874 230.518Z" fill="#217C58"/>
<path d="M88.3011 227.975L80.8433 274.212L87.8022 275.082L95.26 228.845L88.3011 227.975Z" fill="#0875F7"/>
<path d="M95.2493 228.873L88.292 227.996L91.2813 223.907L92.8472 221.792L93.6657 224.205L95.2493 228.873Z" fill="#EA9B7A"/>
<path d="M88.3617 271.759L81.4028 270.889L80.8602 274.254L87.8191 275.125L88.3617 271.759Z" fill="#39393B"/>
<path d="M86.9041 277.718L80.8721 276.966C80.6229 276.935 80.445 276.731 80.4806 276.496L80.8543 274.225L87.8116 275.102L87.4379 277.374C87.3845 277.593 87.1532 277.75 86.9041 277.718Z" fill="#DF615C"/>
<path d="M93.6656 224.205L91.2812 223.907L92.8471 221.792L93.6656 224.205Z" fill="#39393B"/>
<path d="M81.7801 268.458L81.3921 270.862L88.351 271.732L88.7391 269.328L81.7801 268.458Z" fill="#084FC7"/>
<path d="M89.6442 230.486L84.1282 264.716C84.0926 264.982 84.2883 265.217 84.5908 265.249C84.8933 265.28 85.1602 265.107 85.1958 264.841L90.7118 230.612C90.7474 230.346 90.5517 230.111 90.2492 230.079C89.9645 230.048 89.6976 230.236 89.6442 230.486Z" fill="#084FC7"/>
<path d="M92.3844 230.831L86.8684 265.061C86.8328 265.327 87.0286 265.562 87.3311 265.593C87.6336 265.625 87.9005 265.452 87.936 265.186L93.4521 230.957C93.4877 230.69 93.2919 230.455 92.9894 230.424C92.6869 230.393 92.42 230.565 92.3844 230.831Z" fill="#084FC7"/>
<path d="M97.5447 246.685L97.171 249.191L96.8329 251.463L96.3347 254.909L95.9966 257.165L95.4984 260.643L95.1603 262.867L94.6443 266.376L94.324 268.569L93.808 272.11L93.4877 274.272L92.9717 277.843L92.6514 279.974L92.3845 281.823H64.7332L64.4663 279.974L64.146 277.843L63.63 274.272L63.3097 272.11L62.7937 268.569L62.4734 266.376L61.9574 262.867L61.6371 260.643L61.1211 257.165L60.8008 254.909L60.2848 251.463L59.9467 249.191L59.5908 246.685H97.5447Z" fill="#DF615C"/>
<path d="M97.1711 249.191L96.833 251.463H60.2848L59.9468 249.191H97.1711Z" fill="#B11722"/>
<path d="M96.3347 254.909L95.9966 257.166H61.1211L60.8008 254.909H96.3347Z" fill="#B11722"/>
<path d="M95.4985 260.643L95.1604 262.868H61.9575L61.6372 260.643H95.4985Z" fill="#B11722"/>
<path d="M94.6445 266.376L94.3243 268.57H62.7939L62.4736 266.376H94.6445Z" fill="#B11722"/>
<path d="M93.8079 272.11L93.4876 274.273H63.6299L63.3096 272.11H93.8079Z" fill="#B11722"/>
<path d="M92.9717 277.844L92.6514 279.975H64.4663L64.146 277.844H92.9717Z" fill="#B11722"/>
<path d="M437.652 157.673L414.075 245.463L413.453 247.766L411.869 253.672C411.175 256.241 408.595 258.042 405.606 258.042H246.762C242.598 258.042 239.537 254.627 240.498 251.071L266.281 155.057C266.975 152.503 269.555 150.702 272.545 150.702H431.371C435.534 150.702 438.595 154.117 437.652 157.673Z" fill="#39393B"/>
<path d="M414.058 245.447L413.453 247.766H248.523V245.447H414.058Z" fill="#585859"/>
<path d="M310.765 172.414C309.449 178.633 302.651 183.678 295.587 183.678C288.523 183.678 283.861 178.633 285.178 172.414C286.495 166.195 293.292 161.151 300.356 161.151C307.438 161.151 312.082 166.195 310.765 172.414Z" fill="#FAAF3A"/>
<path d="M296.317 170.268C296.05 171.505 295.338 172.524 294.733 172.524C294.111 172.524 293.826 171.521 294.093 170.268C294.36 169.03 295.071 168.012 295.676 168.012C296.299 168.012 296.584 169.015 296.317 170.268Z" fill="#39393B"/>
<path d="M302.99 170.268C302.723 171.505 302.011 172.524 301.406 172.524C300.801 172.524 300.499 171.521 300.766 170.268C301.032 169.03 301.744 168.012 302.349 168.012C302.972 168.012 303.257 169.015 302.99 170.268Z" fill="#39393B"/>
<path d="M296.922 177.913C291.424 177.913 291.192 173.072 291.192 173.025C291.175 172.759 291.424 172.492 291.744 172.445C292.064 172.383 292.313 172.555 292.331 172.821C292.331 172.994 292.545 176.941 297.153 176.941C301.744 176.941 303.63 172.994 303.719 172.821C303.844 172.555 304.182 172.398 304.466 172.445C304.751 172.508 304.893 172.759 304.769 173.025C304.715 173.056 302.42 177.913 296.922 177.913Z" fill="#39393B"/>
<path d="M384.2 225.019C384.342 230.847 395.552 238.147 395.552 238.147C395.552 238.147 408.577 230.847 410.161 225.019C411.869 218.706 403.684 216.763 397.616 221.526C392.723 216.763 384.04 218.706 384.2 225.019Z" fill="#DF615C"/>
<path d="M360.463 208.116C359.698 214.163 353.524 219.05 346.673 219.05C339.823 219.05 334.858 214.147 335.623 208.116C336.388 202.069 342.563 197.181 349.413 197.181C356.282 197.181 361.228 202.085 360.463 208.116Z" fill="#585859"/>
<path d="M278.844 150.701L251.388 258.042H246.762C242.598 258.042 239.537 254.627 240.498 251.071L266.281 155.056C266.975 152.503 269.555 150.686 272.545 150.686H278.844V150.701Z" fill="#585859"/>
<path d="M324.84 258.042L320.018 281.901H335.943L340.765 258.042H324.84Z" fill="white"/>
<path d="M296.21 277.797L299.466 273.771C300.623 272.329 302.509 271.483 304.52 271.483H348.15C350.463 271.483 352.58 272.611 353.648 274.413L355.837 278.11C356.869 279.833 355.445 281.917 353.221 281.917H298.612C296.21 281.901 294.822 279.504 296.21 277.797Z" fill="white"/>
<path d="M205.303 281.885H336.371L337.794 277.53C338.684 274.789 336.353 272.063 333.114 272.063H212.171C210 272.063 208.096 273.332 207.491 275.165L205.303 281.885Z" fill="white"/>
<path d="M377.154 122.033L319.182 122.002C316.94 122.002 315.107 120.389 315.107 118.415L315.125 87.0521C315.125 85.0783 316.958 83.4647 319.2 83.4647L377.172 83.4961C379.414 83.4961 381.246 85.1096 381.246 87.0835L381.229 118.446C381.229 120.436 379.414 122.033 377.154 122.033Z" fill="#DF615C"/>
<path d="M373.702 116.253L368.417 133.83L359.182 117.302L373.702 116.253Z" fill="#DF615C"/>
<path d="M362.83 99.9135C361.655 106.493 347.687 114.733 347.687 114.733C347.687 114.733 334.253 106.477 333.488 99.8822C332.652 92.7387 342.26 90.5611 348.292 95.9501C354.645 90.5768 364.111 92.77 362.83 99.9135Z" fill="white"/>
<path d="M418.234 532.369C472.755 532.369 516.953 528.526 516.953 523.785C516.953 519.043 472.755 515.2 418.234 515.2C363.713 515.2 319.515 519.043 319.515 523.785C319.515 528.526 363.713 532.369 418.234 532.369Z" fill="#CED3E6"/>
<path d="M478.679 461.702H354.052C351.685 461.702 349.764 460.01 349.764 457.927V456.188C349.764 454.104 351.685 452.412 354.052 452.412H478.679C481.045 452.412 482.967 454.104 482.967 456.188V457.927C482.967 460.01 481.045 461.702 478.679 461.702Z" fill="#39393B"/>
<path d="M355.618 349.505H477.38C479.409 349.505 481.046 350.946 481.046 352.732V365.907C481.046 367.693 479.409 369.134 477.38 369.134H355.618C353.59 369.134 351.953 367.693 351.953 365.907V352.732C351.953 350.946 353.59 349.505 355.618 349.505Z" fill="#585859"/>
<path d="M384.373 266.007C384.373 266.007 333.038 257.078 318.714 225.543C304.39 194.008 356.775 170.353 384.373 187.287C413.91 205.397 384.373 266.007 384.373 266.007Z" fill="#21B573"/>
<path d="M414.907 348.863C414.462 348.863 414.052 348.565 413.981 348.158C409.07 318.863 389.23 276.723 373.483 246.535C356.383 213.794 340.262 187.664 340.102 187.397C339.853 187.006 340.031 186.504 340.476 186.285C340.921 186.066 341.49 186.222 341.739 186.614C341.899 186.88 358.056 213.058 375.191 245.846C391.01 276.143 410.903 318.44 415.85 347.923C415.921 348.377 415.583 348.784 415.067 348.847C414.996 348.847 414.942 348.863 414.907 348.863Z" fill="#39393B"/>
<path d="M382.451 262.953C382.113 262.953 381.792 262.796 381.632 262.53C359.301 225.919 323.038 199.35 322.682 199.084C322.291 198.802 322.237 198.285 322.557 197.94C322.878 197.596 323.465 197.549 323.856 197.831C324.23 198.097 360.76 224.854 383.269 261.762C383.518 262.154 383.34 262.655 382.896 262.874C382.735 262.921 382.593 262.953 382.451 262.953Z" fill="#39393B"/>
<path d="M383.465 265.584C383.198 265.584 382.949 265.49 382.753 265.302C366.472 248.43 349.782 237.934 338.661 232.107C326.597 225.794 318.287 223.428 318.216 223.412C317.735 223.271 317.451 222.817 317.611 222.378C317.771 221.956 318.287 221.705 318.785 221.846C319.123 221.94 327.344 224.258 339.568 230.666C350.832 236.556 367.718 247.177 384.177 264.237C384.515 264.582 384.462 265.099 384.07 265.396C383.892 265.522 383.661 265.584 383.465 265.584Z" fill="#39393B"/>
<path d="M378.945 255.981C378.554 255.981 378.198 255.762 378.074 255.433C365.547 223.084 370.155 183.778 370.209 183.387C370.262 182.933 370.725 182.619 371.223 182.666C371.739 182.713 372.095 183.121 372.041 183.559C371.988 183.951 367.433 222.911 379.817 254.9C379.977 255.323 379.728 255.793 379.23 255.934C379.141 255.966 379.034 255.981 378.945 255.981Z" fill="#39393B"/>
<path d="M382.095 262.388C381.65 262.388 381.259 262.106 381.188 261.699C377.362 241.224 380.298 224.525 383.447 214.123C386.864 202.828 391.134 196.468 391.312 196.201C391.579 195.81 392.149 195.684 392.593 195.919C393.038 196.154 393.181 196.656 392.914 197.047C392.878 197.11 388.572 203.517 385.227 214.624C382.148 224.854 379.266 241.303 383.02 261.449C383.109 261.887 382.753 262.31 382.255 262.388C382.184 262.373 382.131 262.388 382.095 262.388Z" fill="#39393B"/>
<path d="M438.518 274.247C438.518 274.247 490.369 267.997 506.793 237.276C523.216 206.54 472.504 180.207 443.821 195.669C413.109 212.211 438.518 274.247 438.518 274.247Z" fill="#21B573"/>
<path d="M418.857 346.184C418.34 346.184 417.913 345.808 417.931 345.353C418.127 330.267 421.864 313.082 429.034 294.284C434.764 279.26 442.664 263.172 452.558 246.472C469.373 218.039 486.312 197.376 486.49 197.172C486.793 196.812 487.38 196.718 487.789 196.984C488.198 197.251 488.305 197.768 488.003 198.128C487.842 198.332 470.974 218.916 454.212 247.24C438.768 273.354 420.262 311.563 419.817 345.369C419.782 345.823 419.373 346.184 418.857 346.184Z" fill="#39393B"/>
<path d="M440.707 271.302C440.547 271.302 440.369 271.271 440.227 271.177C439.782 270.942 439.657 270.441 439.924 270.049C464.871 234.378 503.145 209.564 503.536 209.313C503.946 209.047 504.533 209.125 504.835 209.486C505.138 209.846 505.049 210.363 504.64 210.629C504.266 210.88 466.277 235.506 441.526 270.895C441.33 271.161 441.027 271.302 440.707 271.302Z" fill="#39393B"/>
<path d="M439.515 273.871C439.284 273.871 439.052 273.793 438.874 273.652C438.501 273.339 438.483 272.822 438.839 272.493C456.437 256.31 473.999 246.597 485.636 241.302C498.269 235.553 506.615 233.658 506.97 233.579C507.469 233.47 507.967 233.736 508.091 234.175C508.216 234.613 507.914 235.052 507.415 235.162C507.326 235.177 498.874 237.104 486.419 242.775C474.924 248.007 457.575 257.626 440.173 273.621C440.013 273.777 439.764 273.871 439.515 273.871Z" fill="#39393B"/>
<path d="M444.675 264.519C444.55 264.519 444.444 264.503 444.319 264.456C443.839 264.284 443.625 263.814 443.803 263.391C458.323 232.091 456.383 192.974 456.365 192.583C456.348 192.128 456.739 191.752 457.255 191.721C457.753 191.69 458.198 192.05 458.234 192.504C458.251 192.896 460.209 232.373 445.547 264.018C445.387 264.331 445.049 264.519 444.675 264.519Z" fill="#39393B"/>
<path d="M441.099 270.754C441.028 270.754 440.956 270.754 440.885 270.738C440.387 270.644 440.067 270.205 440.191 269.767C445.316 249.84 443.536 233.282 441.152 222.911C438.554 211.663 434.711 205.037 434.675 204.958C434.444 204.551 434.622 204.065 435.067 203.862C435.529 203.658 436.081 203.815 436.312 204.206C436.472 204.473 440.298 211.052 442.949 222.519C445.387 233.078 447.202 249.903 442.006 270.127C441.917 270.487 441.526 270.754 441.099 270.754Z" fill="#39393B"/>
<path d="M418.554 214.781C418.554 214.781 374.622 189.747 374.568 155.784C374.515 121.821 433.127 116.933 451.65 141.653C471.49 168.113 418.554 214.781 418.554 214.781Z" fill="#21B573"/>
<path d="M412.415 301.741C412.344 301.741 412.273 301.741 412.202 301.725C411.704 301.615 411.401 301.177 411.508 300.738C419.266 271.929 418.572 226.311 416.632 193.131C414.533 157.147 410.529 127.602 410.494 127.32C410.44 126.865 410.796 126.458 411.312 126.411C411.81 126.364 412.291 126.677 412.344 127.132C412.38 127.429 416.383 157.022 418.501 193.053C420.458 226.342 421.134 272.117 413.341 301.114C413.216 301.49 412.842 301.741 412.415 301.741Z" fill="#39393B"/>
<path d="M418.394 211.381C417.931 211.381 417.522 211.068 417.469 210.66C412.131 169.366 389.622 132.865 389.39 132.505C389.141 132.113 389.301 131.612 389.764 131.392C390.209 131.173 390.778 131.314 391.027 131.721C391.259 132.082 413.946 168.864 419.319 210.488C419.373 210.942 419.017 211.35 418.501 211.397C418.465 211.381 418.43 211.381 418.394 211.381Z" fill="#39393B"/>
<path d="M418.234 214.138C417.843 214.138 417.487 213.919 417.362 213.574C409.337 192.582 398.252 177.402 390.369 168.363C381.828 158.557 375.102 153.669 375.031 153.622C374.64 153.34 374.569 152.823 374.907 152.478C375.227 152.134 375.814 152.071 376.206 152.369C376.49 152.572 383.127 157.397 391.793 167.329C399.782 176.478 410.992 191.83 419.106 213.057C419.266 213.48 419.017 213.95 418.519 214.091C418.43 214.123 418.341 214.138 418.234 214.138Z" fill="#39393B"/>
<path d="M418.074 203.752C418.056 203.752 418.038 203.752 418.02 203.752C417.504 203.736 417.113 203.345 417.148 202.89C419.123 168.771 439.942 133.758 440.138 133.398C440.387 132.99 440.938 132.849 441.401 133.053C441.864 133.257 442.024 133.758 441.793 134.165C441.579 134.51 420.956 169.209 419.017 202.969C418.981 203.407 418.572 203.752 418.074 203.752Z" fill="#39393B"/>
<path d="M418.305 210.723C418.234 210.723 418.18 210.723 418.109 210.707C417.611 210.613 417.291 210.175 417.397 209.736C422.451 189.465 432.237 174.802 439.568 166.06C447.522 156.567 454.177 151.946 454.462 151.758C454.871 151.476 455.458 151.538 455.761 151.899C456.081 152.259 456.01 152.776 455.6 153.042C455.529 153.089 448.821 157.758 441.01 167.079C433.803 175.679 424.177 190.123 419.212 210.081C419.124 210.472 418.732 210.723 418.305 210.723Z" fill="#39393B"/>
<path d="M472.237 297.354L470.707 300.926L469.746 303.197L466.971 309.683L465.992 311.954L463.145 318.628L462.184 320.884L449.942 349.489H383.074L370.832 320.884L369.871 318.628L367.024 311.954L366.045 309.683L363.269 303.197L362.308 300.926L360.778 297.354C359.728 294.894 361.792 292.278 364.764 292.278H468.269C471.223 292.278 473.287 294.894 472.237 297.354Z" fill="#0875F7"/>
<path d="M470.707 300.926L469.746 303.197H363.269L362.291 300.926H470.707Z" fill="#084FC7"/>
<path d="M466.953 309.683L465.992 311.954H367.006L366.045 309.683H466.953Z" fill="#084FC7"/>
<path d="M463.127 318.628L462.166 320.885H370.832L369.871 318.628H463.127Z" fill="#084FC7"/>
<path d="M398.59 369.118L394.889 379.645L343.269 526.119H333.18L365.903 382.637L368.999 369.118H398.59Z" fill="#39393B"/>
<path d="M500.12 526.119H490.031L436.899 375.306L434.71 369.118H464.301L465.049 372.408L500.12 526.119Z" fill="#39393B"/>
<path d="M478.679 441.509H354.052C351.685 441.509 349.764 439.817 349.764 437.734V435.995C349.764 433.911 351.685 432.219 354.052 432.219H478.661C481.027 432.219 482.949 433.911 482.949 435.995V437.734C482.967 439.817 481.045 441.509 478.679 441.509Z" fill="#585859"/>
<path d="M321.703 89.3566C348.354 89.3566 369.959 70.5738 369.959 47.4041C369.959 24.2344 348.354 5.4516 321.703 5.4516C295.051 5.4516 273.446 24.2344 273.446 47.4041C273.446 70.5738 295.051 89.3566 321.703 89.3566Z" fill="#CED3E6"/>
<path d="M321.703 83.905C348.354 83.905 369.959 65.1222 369.959 41.9525C369.959 18.7828 348.354 0 321.703 0C295.051 0 273.446 18.7828 273.446 41.9525C273.446 65.1222 295.051 83.905 321.703 83.905Z" fill="#0875F7"/>
<path d="M321.703 76.0566C343.362 76.0566 360.92 60.7877 360.92 41.9526C360.92 23.1174 343.362 7.84851 321.703 7.84851C300.043 7.84851 282.485 23.1174 282.485 41.9526C282.485 60.7877 300.043 76.0566 321.703 76.0566Z" fill="white"/>
<path d="M360.92 41.9526C360.92 42.8612 360.884 43.7541 360.795 44.647C359.211 27.1016 342.272 13.2375 321.685 13.2375C301.097 13.2375 284.176 27.1016 282.574 44.647C282.503 43.7541 282.45 42.8612 282.45 41.9526C282.45 23.1382 300.048 7.84851 321.667 7.84851C343.322 7.84851 360.92 23.1382 360.92 41.9526Z" fill="#CED3E6"/>
<path d="M321.703 45.4929C321.4 45.4929 321.098 45.3676 320.92 45.1483L301.685 22.6211C301.364 22.2451 301.453 21.7125 301.88 21.4305C302.307 21.1485 302.93 21.2269 303.251 21.6028L322.023 43.5817L343.357 35.4356C343.856 35.2476 344.425 35.4356 344.656 35.8742C344.87 36.3128 344.656 36.8141 344.158 37.0021L322.112 45.4146C321.969 45.4772 321.827 45.4929 321.703 45.4929Z" fill="#39393B"/>
</svg>
